<?xml version="1.0" encoding="utf-8"?>
<!-- Generator: Adobe Illustrator 23.0.1, SVG Export Plug-In . SVG Version: 6.00 Build 0)  -->
<svg version="1.1" id="Layer_1" xmlns="http://www.w3.org/2000/svg" xmlns:xlink="http://www.w3.org/1999/xlink" x="0px" y="0px"
	 viewBox="0 0 513 364" style="enable-background:new 0 0 513 364;" xml:space="preserve">
<style type="text/css">
	.st0{opacity:0.32;fill:#898989;}
	.st1{opacity:0.55;fill:#898989;}
	.st2{fill:#B8B0AF;}
	.st3{fill:#FFF3B6;}
	.st4{fill:#F4CE7F;}
	.st5{fill:#FEFEE8;}
	.st6{fill:#F1CF85;}
	.st7{fill:#E4E9F0;}
	.st8{fill:#EC1917;}
	.st9{fill:#CB1917;}
	.st10{opacity:0.55;}
	.st11{fill:#C0CCDC;}
	.st12{opacity:0.55;fill:#A16140;}
	.st13{opacity:0.75;fill:url(#SVGID_1_);}
	.st14{fill:#6E5C60;}
	.st15{opacity:0.75;fill:#392B30;}
	.st16{fill:#392B30;}
	.st17{fill:#E1DADD;}
	.st18{fill:#5F5858;}
	.st19{opacity:0.75;fill:#C2BFBF;}
	.st20{opacity:0.55;fill:#5F5858;}
	.st21{fill:#ACA8A8;}
	.st22{fill:#716A6A;}
	.st23{opacity:0.75;fill:#716A6A;}
	.st24{fill:#FFAA43;}
	.st25{fill:#974C3C;}
	.st26{opacity:0.55;fill:url(#SVGID_2_);}
	.st27{opacity:0.32;fill:#FFDAAD;}
	.st28{fill:#E9F0F2;}
	.st29{fill:#CCD4D6;}
	.st30{fill:#CB1C19;}
	.st31{fill:#E7F8F5;}
	.st32{opacity:0.35;fill:#A10300;}
	.st33{opacity:0.35;fill:#B84341;}
	.st34{fill:#BACFD6;}
	.st35{fill:#DAE5E9;}
	.st36{fill:#F8FAFB;}
	.st37{fill:#7C8B9C;}
	.st38{fill:#7CA4B1;}
	.st39{fill:url(#SVGID_3_);}
	.st40{fill:#D5DAE0;}
	.st41{fill:url(#SVGID_4_);}
	.st42{fill:#FFFFFF;}
	.st43{fill:#E7ECEE;}
	.st44{fill:#CFD9DD;}
	.st45{fill:#FF0029;}
	.st46{opacity:0.55;fill:#BFBFBF;}
	.st47{opacity:0.55;fill:#E0DBCE;}
	.st48{fill:#03ADF8;}
	.st49{opacity:0.55;fill:#E0DBDD;}
	.st50{fill:#20C8D8;}
	.st51{opacity:0.55;fill:#B5BECE;}
	.st52{opacity:0.55;fill:#FFDAAD;}
	.st53{fill:#403D3D;}
	.st54{fill:url(#SVGID_5_);}
	.st55{fill:url(#SVGID_6_);}
	.st56{fill:url(#SVGID_7_);}
	.st57{fill:#9C9A9A;}
	.st58{fill:#8F8D8D;}
	.st59{fill:#6C6A6A;}
	.st60{fill:#E2E5E8;}
	.st61{fill:url(#SVGID_8_);}
	.st62{opacity:0.55;fill:url(#SVGID_9_);}
	.st63{opacity:0.55;fill:url(#SVGID_10_);}
	.st64{opacity:0.55;fill:url(#SVGID_11_);}
	.st65{opacity:0.55;fill:url(#SVGID_12_);}
	.st66{opacity:0.55;fill:url(#SVGID_13_);}
	.st67{opacity:0.55;fill:#848C9A;}
	.st68{fill:url(#SVGID_14_);}
	.st69{fill:url(#SVGID_15_);}
	.st70{fill:url(#SVGID_16_);}
	.st71{fill:url(#SVGID_17_);}
	.st72{fill:url(#SVGID_18_);}
	.st73{fill:url(#SVGID_19_);}
	.st74{fill:url(#SVGID_20_);}
	.st75{fill:url(#SVGID_21_);}
	.st76{fill:url(#SVGID_22_);}
	.st77{fill:url(#SVGID_23_);}
	.st78{fill:url(#SVGID_24_);}
	.st79{fill:url(#SVGID_25_);}
	.st80{fill:url(#SVGID_26_);}
	.st81{fill:url(#SVGID_27_);}
</style>
<path class="st0" d="M398.23,175.73c-11.2-2.93-22.7-2.68-34.2-2.61c-12.33,0.07-23.5,1.27-35.22,5.36
	c-4.09,1.43-7.77,3.19-11.58,5.06c0.14,0.7,0.29,1.41,0.43,2.11c8.44,0.63,16.75,2.75,25.01,4.49l0,0c3.69,0.83,7.37,1.69,10.8,2.52
	c6,1.5,12.01,2.95,17.98,4.54c5.9-3.23,12.28-5.58,18.63-7.76c2.96-1.01,5.92-2.02,8.89-2.98c2.75-0.89,14.28-4.93,14.41-6.1
	C408.43,177.76,402.71,176.91,398.23,175.73z"/>
<path class="st1" d="M319.32,180.63c-9.53-2.16-18.65-2.33-28.35-2.71c-9.55-0.37-19.45-1.43-28.78,1.14
	c-5.57,1.54-11.13,3.07-16.7,4.6l-0.24,0.66c5,4.59,11.47,7.92,17.77,10.28l0,0c6.11,2.31,12.56,3.72,19.06,4.24c0,0,0,0,0-0.01
	c3.64,0.29,7.52,0.33,11.64,0.02v0c6.82-0.54,13.71-1.39,20.34-3.12l0,0c13.99-3.53,17.75-8.32,17.75-8.32l-0.26-2.05
	C327.58,183.47,323.6,181.6,319.32,180.63z"/>
<path class="st1" d="M440.25,209.7c-0.55,0-1.11-0.03-1.67-0.08c-1.63,1.7-3.61,3.02-6.02,3.65c-10.29,2.68-20.67-2.46-31.58-3.53
	c-6.33-0.62-12.47-1.71-18.54-4.28c-4.9-2.08-9.5-5-15.01-4.77c-14.47,0.61-29.07,4.27-44.28,5.85c-4.68,0.49-1.15-4.46-5.32-5.19
	c0,0-13.67,2.63-13.67,4.15c0,0,13.86,10.9,35.39,8.01c4.73-0.63,19.26-2.88,20.2-3.03c1.74,0.92,8.18,3.82,8.79,4.01
	c6.68,2.03,14.73,1.66,21.16,0.26c0.32-0.07,0.64-0.15,0.96-0.23c11.89,3.97,24.57,8.17,24.57,8.17
	c24.89,4.75,34.49-8.02,37.59-14.19h0c0,0,0.4-0.39,1-1.11c0.24-0.29,0.51-0.62,0.8-1.01c0.44-0.58,0.92-1.26,1.4-2.03
	c0.81-1.29,1.61-2.85,2.24-4.58C454.6,205.46,449.43,209.64,440.25,209.7z"/>
<path class="st1" d="M259.82,237.21c0.23-0.09,0.45-0.18,0.68-0.27c1.14-0.45,2.28-0.87,3.42-1.28c0.4-0.14,0.8-0.29,1.2-0.43
	c0.94-0.33,1.87-0.65,2.8-0.96c0.8-0.27,1.59-0.52,2.38-0.77c0.5-0.16,1.01-0.32,1.5-0.47c13.73-4.21,24.91-5.86,24.91-5.86
	c-6.72-4.07-1.73-5.6,1.38-6.11c-0.15-0.13-0.29-0.26-0.44-0.38h0c-0.6-0.51-1.19-1.02-1.76-1.54c-0.3,0.04-0.65,0.01-1.05-0.12
	c-0.41-0.13-0.87-0.36-1.39-0.73c-0.33-0.24-0.56-0.44-0.69-0.62c-0.14-0.18-0.19-0.33-0.17-0.45c0.03-0.25,0.32-0.4,0.71-0.49
	c-0.4-0.38-0.8-0.76-1.2-1.13c-0.79,0.28-1.81,0.28-2.66-0.6c-0.54-0.55-0.56-0.94-0.33-1.21c0.14-0.16,0.37-0.28,0.64-0.37v0l0,0
	c-0.45-0.41-0.91-0.81-1.38-1.22c-0.78,0.19-1.83,0.09-2.62-0.57c-0.09-0.08-0.17-0.15-0.22-0.23c-0.23-0.29-0.19-0.52,0-0.72
	c0.14-0.14,0.36-0.27,0.6-0.36c-0.54-0.45-1.07-0.89-1.61-1.34c-1,0.3-2.49,0.33-3.3-0.44c-0.75-0.71,0.16-1.12,1.13-1.34
	c-0.54-0.44-1.08-0.88-1.61-1.32l0,0l0,0c-0.04,0.01-0.09,0.02-0.13,0.03c-0.6,0.14-1.34,0.21-2.01,0.05
	c-0.24-0.06-0.47-0.15-0.67-0.27c-0.42-0.25-0.4-0.5-0.17-0.73c0.17-0.17,0.47-0.33,0.79-0.47c0.11-0.05,0.22-0.09,0.33-0.13
	c-0.73-0.6-1.44-1.21-2.16-1.82c-7.11,4.17-10.95-1.18-10.95-1.18c-0.57,0.3-1.17,0.59-1.78,0.88c-0.2,0.09-0.4,0.18-0.6,0.27
	c-0.45,0.2-0.91,0.4-1.39,0.59c-0.22,0.09-0.43,0.18-0.65,0.27c-0.62,0.25-1.26,0.49-1.92,0.73c-0.29,0.1-0.59,0.2-0.88,0.31
	c-0.42,0.14-0.84,0.29-1.26,0.43c-7.69,2.52-16.95,4.38-24.56,5.64l0,0c-6.24,1.03-11.36,1.66-13.57,1.91l0,0
	c-0.73,0.08-1.15,0.13-1.15,0.13c1.95,1.7,1.75,2.98,0.52,3.96c-0.12,0.1-0.25,0.2-0.4,0.29c-0.03,0.02-0.06,0.03-0.09,0.05
	c-0.17,0.11-0.35,0.21-0.54,0.31c0,0-0.01,0-0.01,0c-1.32,0.66-3.13,1.14-4.88,1.48l0,0c-0.28,0.05-0.56,0.11-0.83,0.15
	c0.57,0.5,1.11,1,1.63,1.51c1.56-0.22,3.2,0.02,3.89,0.93c0.42,0.54,0.06,0.97-0.62,1.3c-0.09,0.04-0.18,0.08-0.28,0.12
	c-0.17,0.07-0.36,0.14-0.56,0.2c0.37,0.41,0.73,0.83,1.09,1.25c0.17-0.07,0.34-0.13,0.5-0.19c0.27-0.1,0.53-0.18,0.77-0.24
	c1.44-0.36,2.5-0.06,3.4,1.12c0.57,0.75-1,1.34-2.61,1.73c0.33,0.39,0.67,0.79,1.01,1.18c0.12-0.05,0.25-0.09,0.38-0.14v0
	c0.27-0.1,0.56-0.18,0.85-0.26c0.01,0,0.03-0.01,0.04-0.01c0.27-0.07,0.55-0.12,0.82-0.16c0.03,0,0.06-0.01,0.09-0.02
	c0.28-0.04,0.56-0.06,0.83-0.07c0.01,0,0.03,0,0.04,0c0.28,0,0.56,0.02,0.82,0.06c0.69,0.11,1.27,0.39,1.62,0.9
	c0.92,1.37-1.2,2.04-3.07,2.36c0.61,0.65,1.23,1.29,1.88,1.93c0.1-0.07,0.22-0.13,0.33-0.19c0.1-0.06,0.19-0.11,0.3-0.17
	c0.1-0.06,0.22-0.1,0.33-0.15c0.14-0.07,0.29-0.13,0.44-0.19c0.14-0.05,0.27-0.1,0.42-0.14c0.1-0.03,0.2-0.05,0.3-0.07
	c0.12-0.03,0.23-0.05,0.35-0.07c0.11-0.01,0.22-0.02,0.33-0.02c0.11-0.01,0.23-0.01,0.35,0c0.11,0.01,0.23,0.02,0.35,0.03
	c0.11,0.02,0.23,0.04,0.34,0.07c0.12,0.03,0.23,0.06,0.35,0.11c0.11,0.04,0.22,0.1,0.34,0.15c0.12,0.06,0.24,0.11,0.35,0.19
	c0.21,0.14,0.42,0.29,0.63,0.48c1.73,1.65-0.71,2.27-2.88,2.51c0.64,0.6,1.27,1.2,1.92,1.8c0.6-0.15,1.28-0.22,1.93-0.19
	c0.44,0.02,0.86,0.08,1.25,0.2c0.19,0.06,0.38,0.13,0.54,0.21c0.34,0.17,0.62,0.39,0.82,0.67c0.61,0.85-0.28,1.52-1.42,2
	c0.37,0.34,0.74,0.69,1.11,1.04l0,0c0.33,0.3,0.65,0.61,0.98,0.91c0.77-0.34,1.49-0.63,2.16-0.88c0.02-0.01,0.05-0.02,0.07-0.03
	c10.28-3.73,9.77,3.14,9.77,3.14c0.37-0.21,0.75-0.41,1.13-0.61l0,0c2.76-1.49,5.61-2.86,8.48-4.11c0.09-0.04,0.18-0.08,0.27-0.12
	C257.21,238.26,258.51,237.72,259.82,237.21z"/>
<g>
	<path class="st2" d="M257.63,84.59c-0.05,0.03-0.08,0.05-0.08,0.05C268.34,115.67,299,269.03,299,269.03
		c0.55,0.04,1.14,0.09,1.74,0.15c0.18,0.02,0.36,0.04,0.54,0.06c0.46,0.05,0.92,0.1,1.41,0.16c0.19,0.02,0.38,0.04,0.57,0.07
		c0.66,0.08,1.33,0.17,2.03,0.27c0.01,0,0.02,0,0.03,0.01c0.69,0.1,1.41,0.2,2.14,0.32c0.23,0.04,0.46,0.07,0.69,0.11
		c0.55,0.09,1.11,0.18,1.68,0.27c0.23,0.04,0.46,0.08,0.7,0.12c6.62,1.12,14.33,2.7,21.99,4.4l0,0c4.95,1.1,9.88,2.24,14.47,3.34v0
		c3.94,0.94,7.64,1.84,10.89,2.65c5.77,1.43,10.15,2.57,12.1,3.07c0.05,0.01,0.08,0.02,0.13,0.03c0.21,0.06,0.4,0.11,0.55,0.14
		c0.27,0.07,0.44,0.11,0.44,0.11c5.38-2.97,12.41-5.92,19.6-8.59c5.17-1.83,14.72-5.12,19.12-6.49c8.47-2.64,14.64-4.31,14.64-4.31
		c3.94-49.09,38.45-175.87,38.45-175.87c-4.33-13.11-20.92-11.16-20.92-11.16c-15.02-15.48-53.76-23.72-83.19-23.58
		c-34.56,0.16-79.25,19.33-79.25,19.33C266.72,71.24,257.77,84.51,257.63,84.59z"/>
	<g>
		<path class="st3" d="M267.95,85.84c1.65-8.87,10.63-21.67,19.65-23.65c8.86-1.95,15.65,4.83,24.92,0.34
			c9.02-4.36,20.43-18.65,30.91-13.79c4.77,2.21,9.17,4.87,14.7,3.88c6.1-1.09,10.77-6.11,16.51-8.25
			c4.76-1.77,13.59-3.45,18.28-0.9c4.62,2.51,5.63,8.9,9.7,11.97c4.19,3.16,9.71,1.78,14.46,2.88c5.8,1.34,10.9,5.09,14.09,10.37
			c2.98,4.95,3.93,8.22,9.17,10.85c4.53,2.27,5.65,3.3,6.67,8.69c0.65,3.39,2.62,12.06-0.12,14.5c-4.02,3.59-17.94-0.7-22.85-0.48
			c-16.73,0.76-33.13,3.52-49.95,3.73c-21.02,0.27-41.05-3.36-61.54-7.98c-10.73-2.42-21.95-4.38-32.46-6.6
			C276.77,90.71,267.14,90.21,267.95,85.84z"/>
		<path class="st4" d="M437.51,96.71c-3.99-3.28-7.48-7.06-11.27-10.59c-0.85-0.79-4.93-3.69-3.81-3.08
			c-0.77-0.48-1.52-0.98-2.31-1.43c-2.44-1.37-4.89-2.74-7.43-3.91c-0.65-0.3-7-2.82-4.72-2.08c-4.69-1.62-9.43-3.08-14.26-4.14
			c-2.66-0.59-5.32-1.2-8.01-1.6c-1.3-0.19-2.11-0.33-2.59-0.43c-0.6-0.02-1.26-0.05-2.37-0.1c-2.98-0.14-5.97-0.21-8.95-0.1
			c-3.69,0.13-7.36,0.37-11.03,0.69c-7.69,0.66-15.23-2.61-20.2-8.86c-0.03-0.03-0.05-0.07-0.08-0.1
			c-3.97-1.01-7.98-1.68-12.22-1.03c-4.29,0.65-7.54,3.6-11.61,4.9c-4.21,1.34-8.61,2.31-13.02,2.49
			c-4.79,0.2-10.69-0.78-15.23,1.07c-4.01,1.63-7.09,5.03-10.78,7.31c-2.55,1.57-5.14,2.99-7.78,4.28c-0.9,2.03-1.57,4.03-1.91,5.86
			c-0.63,3.4,5.08,4.45,9.2,5.09l0,0c0.01,0,0.02,0,0.02,0c0.48,0.07,0.95,0.14,1.37,0.21c0.01,0,0.03,0,0.04,0.01
			c0.22,0.03,0.42,0.07,0.62,0.1c0.07,0.01,0.15,0.02,0.21,0.03c0.24,0.04,0.46,0.08,0.66,0.12c10.51,2.21,21.73,4.17,32.46,6.6
			c20.48,4.62,40.52,8.25,61.54,7.98c1.87-0.02,3.74-0.09,5.6-0.17c0.62-0.03,1.24-0.06,1.86-0.09c1.25-0.07,2.5-0.14,3.75-0.23
			c0.7-0.05,1.39-0.09,2.09-0.14c1.56-0.12,3.13-0.25,4.69-0.38c10.65-0.93,21.23-2.23,31.95-2.72c4.63-0.21,17.26,3.59,22.06,1.02
			C443.33,101.37,440.51,99.18,437.51,96.71z"/>
		<g>
			<path class="st5" d="M329.48,53.4c4.3-1.43,5.43,1.62,6.43,5.18c1.33,4.73,6.54,4.71,10.05,2.18c4.03-2.9,5.61-8,3.01-12.68
				c-2.42-4.35-5.57-1.57-8.94-1.82c-2.84-0.21-4.45-3.17-7.24-3.59c-2.46-0.38-4.56,1.12-6.06,3.07c-1.29,1.68-2.25,3.85-1.11,5.92
				c0.97,1.75,3.23,2.34,4.68,1.14L329.48,53.4z"/>
			<path class="st6" d="M331.07,46.36c-1.48,0.25-3.04,2.84-1.77,4.24c1.02,1.13,3.35-0.1,4.74,0.67c3.42,1.9,1.71,8.55,7.14,6.91
				c2.4-0.72,4.62-3.91,3.78-6.59c-0.62-2.01-2.65-2.47-4.44-2.77c-2.32-0.38-1.87-0.88-3.48-2.44c-1.16-1.13-2.58-1.41-4.09-1.07
				C331.88,45.57,332.14,46.18,331.07,46.36z"/>
		</g>
		<g>
			<path class="st5" d="M404.93,77.66c-4.36,1.22-5.35-1.88-6.2-5.49c-1.12-4.79-6.33-5.02-9.95-2.66
				c-4.15,2.71-5.95,7.73-3.55,12.52c2.23,4.46,5.5,1.84,8.85,2.24c2.82,0.34,4.31,3.37,7.08,3.93c2.45,0.49,4.61-0.9,6.18-2.78
				c1.36-1.62,2.41-3.74,1.36-5.86c-0.89-1.79-3.13-2.49-4.63-1.37L404.93,77.66z"/>
			<path class="st6" d="M403.04,84.62c1.49-0.18,3.16-2.69,1.94-4.16c-0.97-1.18-3.35-0.06-4.71-0.9c-3.33-2.06-1.35-8.62-6.83-7.24
				c-2.43,0.61-4.78,3.68-4.06,6.41c0.54,2.03,2.55,2.59,4.32,2.97c2.3,0.49,1.83,0.97,3.37,2.6c1.11,1.19,2.52,1.53,4.04,1.26
				C402.2,85.37,401.96,84.75,403.04,84.62z"/>
		</g>
		<g>
			<path class="st5" d="M396.46,62.15c1.88-0.36,4.28-1.42,5.98,0.16c1.63,1.52,2.57,3.8,4.5,5.23c6.15,4.55,12.75-2.25,10.76-9.21
				c-1.6-5.59-8.99-10.28-14.54-8.66c-3.71,1.08-10.29,6.04-8.96,10.94c0.52,1.91,2.19,2.76,3.56,1.14L396.46,62.15z"/>
			<path class="st6" d="M404.58,54.54c-2.71-1.76-7.08-0.51-7.99,2.67c-1.33,4.64,3.67,1.83,5.97,3.92
				c1.45,1.32,4.62,7.05,5.49,1.85c0.44-2.63-0.78-7.06-3.24-8.3c-0.5-0.25-1.13-0.38-1.73-0.32L404.58,54.54z"/>
		</g>
		<g>
			<path class="st5" d="M307.03,65.14c1.88-0.36,4.28-1.42,5.98,0.16c1.63,1.52,2.57,3.8,4.5,5.23c6.15,4.55,12.75-2.25,10.76-9.21
				c-1.6-5.59-8.99-10.28-14.54-8.66c-3.71,1.08-10.29,6.04-8.96,10.94c0.52,1.91,2.19,2.76,3.56,1.14L307.03,65.14z"/>
			<path class="st6" d="M315.14,57.53c-2.71-1.76-7.08-0.51-7.99,2.67c-1.33,4.64,3.67,1.83,5.97,3.92
				c1.45,1.32,4.62,7.05,5.49,1.85c0.44-2.63-0.78-7.06-3.24-8.3c-0.5-0.25-1.13-0.38-1.73-0.32L315.14,57.53z"/>
		</g>
		<g>
			<path class="st5" d="M382.34,62.61c-1.9-0.19-4.48,0.17-5.73-1.84c-1.19-1.93-1.52-4.39-3.02-6.3
				c-4.78-6.11-12.86-1.42-12.7,5.84c0.13,5.83,6.07,12.43,11.84,12.44c3.85,0.01,11.44-2.92,11.4-8.01
				c-0.02-1.99-1.41-3.27-3.15-2.1L382.34,62.61z"/>
			<path class="st6" d="M372.6,67.65c2.17,2.46,6.7,2.48,8.38-0.32c2.46-4.1-3.08-2.8-4.77-5.46c-1.07-1.68-2.68-8.1-4.82-3.33
				c-1.09,2.41-1.03,7.02,1.03,8.91c0.42,0.38,0.99,0.69,1.58,0.79L372.6,67.65z"/>
		</g>
		<g>
			<path class="st5" d="M369.44,94.62c1.88-0.36,4.28-1.42,5.98,0.16c1.63,1.52,2.57,3.8,4.5,5.23c6.15,4.55,12.75-2.25,10.76-9.21
				c-1.6-5.59-8.99-10.28-14.54-8.66c-3.71,1.08-10.29,6.04-8.96,10.94c0.52,1.91,2.19,2.76,3.56,1.14L369.44,94.62z"/>
			<path class="st6" d="M377.56,87.02c-2.71-1.76-7.08-0.51-7.99,2.67c-1.33,4.64,3.67,1.83,5.97,3.92
				c1.46,1.32,4.62,7.05,5.49,1.85c0.44-2.63-0.78-7.06-3.24-8.3c-0.5-0.25-1.13-0.38-1.73-0.32L377.56,87.02z"/>
		</g>
		<g>
			<path class="st5" d="M292.64,79.36c0.62-1.9,0.92-4.64,3.06-5.43c2.05-0.76,4.39-0.5,6.51-1.58c6.76-3.43,4.37-12.85-2.34-14.44
				c-5.39-1.27-12.87,3.23-14.25,9.14c-0.92,3.95-0.05,12.44,4.65,13.62c1.83,0.46,3.34-0.66,2.68-2.72L292.64,79.36z"/>
			<path class="st6" d="M290.33,68.15c-2.77,1.63-3.88,6.27-1.7,8.67c3.18,3.51,3.3-2.49,6.15-3.58c1.8-0.69,8.08-0.8,4.21-4.14
				c-1.96-1.7-6.21-2.75-8.43-1.09c-0.45,0.34-0.87,0.85-1.11,1.43L290.33,68.15z"/>
		</g>
		<g>
			<path class="st5" d="M363.92,72.43c-2.32-0.13-4.12,1.16-6.18-0.56c-1.73-1.44-2.37-2.55-4.91-1.91
				c-6.35,1.59-9.89,11.46-4.61,16.3c2.98,2.73,5.86,2.81,8.22-0.46c1.83-2.54,4.13-3.49,6.93-1.91c2.31,1.3,6.31,3.99,8.37,0.74
				c1.27-2.02,1.09-6.51-0.15-8.54c-1.54-2.51-6-4.39-8.79-4.04L363.92,72.43z"/>
			<path class="st6" d="M360.01,73.47c-1.97,0.02-2.66-0.07-3.76,1.63c-1.14,1.77-1.89,2.95-3.63,4.15
				c-1.23,0.84-2.67,1.57-1.69,3.46c1.28,2.48,3.61,0.74,5.09-0.35c1.35-0.99,2.87-2.14,4.65-1.79c1.5,0.3,2.37,2.58,3.7,0.74
				c2.06-2.85-1.28-7.03-3.83-7.6c-0.85-0.19-1.89-0.02-2.76-0.01L360.01,73.47z"/>
		</g>
		<g>
			<path class="st5" d="M420.82,75.44c-2.32-0.13-4.12,1.16-6.18-0.56c-1.73-1.44-2.37-2.55-4.91-1.91
				c-6.35,1.59-9.89,11.46-4.61,16.3c2.98,2.73,5.86,2.81,8.22-0.46c1.83-2.54,4.13-3.49,6.93-1.91c2.31,1.3,6.31,3.99,8.37,0.74
				c1.27-2.02,1.09-6.51-0.15-8.54c-1.54-2.51-6-4.39-8.79-4.04L420.82,75.44z"/>
			<path class="st6" d="M416.91,76.48c-1.97,0.02-2.66-0.07-3.76,1.63c-1.14,1.77-1.89,2.95-3.63,4.15
				c-1.23,0.84-2.67,1.57-1.69,3.46c1.28,2.48,3.61,0.74,5.09-0.35c1.35-0.99,2.87-2.14,4.65-1.79c1.5,0.3,2.37,2.58,3.7,0.74
				c2.06-2.85-1.28-7.03-3.83-7.6c-0.85-0.19-1.89-0.02-2.76-0.01L416.91,76.48z"/>
		</g>
		<g>
			<path class="st5" d="M390.39,43.15c-1.27-1.14-1.34-2.9-2.47-4.12c-1.45-1.57-4.1-1.83-6.05-1.69
				c-4.85,0.33-8.75,9.73-5.94,14.03c3.3,5.06,12.43,7.53,16.47,2.02c1.81-2.47,2.32-8.78-1.44-9.66L390.39,43.15z"/>
			<path class="st6" d="M386.63,41.22c-2.53-3.41-5.66,1.34-5.74,4.02c-0.11,3.68,2.89,5.55,6.05,5.45
				c2.82-0.09,4.45-2.72,2.54-5.16C387.82,43.4,386.63,41.22,386.63,41.22z"/>
		</g>
		<g>
			<path class="st5" d="M313.44,74.94c-1.27-1.14-1.34-2.9-2.47-4.12c-1.45-1.57-4.1-1.83-6.05-1.69
				c-4.85,0.33-8.75,9.73-5.94,14.03c3.3,5.06,12.43,7.53,16.47,2.02c1.81-2.47,2.32-8.78-1.44-9.66L313.44,74.94z"/>
			<path class="st6" d="M309.68,73.01c-2.53-3.41-5.66,1.34-5.74,4.02c-0.11,3.68,2.89,5.55,6.05,5.45
				c2.82-0.09,4.45-2.72,2.54-5.16C310.87,75.18,309.68,73.01,309.68,73.01z"/>
		</g>
		<g>
			<path class="st5" d="M333.21,66.52c-2.14,0.58-3.79,1.48-6.16,0.92c-1.87-0.44-3.06-2.15-5.07-2.16
				c-5.27-0.01-5.68,7.52-4.19,11.35c4.71,12.15,27.34,5.6,21.11-6.69C338.14,68.41,334.76,64.25,333.21,66.52z"/>
			<path class="st6" d="M327.68,68.75c-1.47-0.13-3.06-1.1-4.35-1.13c-1.86-0.03-2.16,1.67-2.2,3.34c-0.07,2.53,1.09,3.7,3.18,4.69
				c3.47,1.66,10.54,2.24,11.93-2.87c0.99-3.65-1.93-6.58-5.06-4.47C331.18,68.32,329.34,68.9,327.68,68.75z"/>
		</g>
		<g>
			<path class="st5" d="M369.49,34.56c-2.14,0.58-3.79,1.48-6.16,0.92c-1.87-0.44-3.06-2.15-5.07-2.16
				c-5.27-0.01-5.68,7.52-4.19,11.35c4.71,12.15,27.34,5.6,21.11-6.69C374.41,36.46,371.04,32.29,369.49,34.56z"/>
			<path class="st6" d="M363.96,36.8c-1.47-0.13-3.06-1.1-4.35-1.13c-1.86-0.03-2.16,1.67-2.2,3.34c-0.07,2.53,1.09,3.7,3.18,4.69
				c3.47,1.66,10.54,2.24,11.93-2.87c0.99-3.65-1.93-6.58-5.06-4.47C367.46,36.36,365.62,36.94,363.96,36.8z"/>
		</g>
	</g>
	<g>
		<path class="st7" d="M462.9,89.04c0,0-34.51,126.78-38.45,175.87c0,0-35.61,9.6-53.36,19.39c0,0-52.54-13.86-72.09-15.27
			c0,0-30.66-153.36-41.45-184.39c0,0,18.14-11.46,31.23,4.58c0,0,9.34-16.61,24.82,2.03c0,0,9.24-13.97,20.25,2.23
			c0,0,10.65-11.77,24.42,3.29c0,0,9.78-14.81,24.94,0.51c0,0,10.9-13.99,24.94,0.23c0,0,17.64-20.93,33.73-5.42
			C441.88,92.09,450.26,75.91,462.9,89.04z"/>
		<path class="st8" d="M408.54,97.07L408.54,97.07c-2.07,84.31-17.87,169.81-17.96,178.68c5.14-1.82,14.81-5.15,19.23-6.53
			C424.77,161.57,440.45,99.7,441.33,91.6C426.78,78.34,411.15,94.21,408.54,97.07z"/>
		<path class="st9" d="M370.67,282.09c0.74-18.27,10.88-183.17,11.49-185.82c-14.56-13.61-24.17,0.21-24.31,0.06
			c0.03,0.7,3.93,110.8,0.03,184.61c6.62,1.65,11.43,2.9,12.8,3.26C370.65,283.5,370.64,282.8,370.67,282.09z"/>
		<path class="st9" d="M287.78,88.08c-12.99-14.31-30.23-3.44-30.23-3.44C268.34,115.67,299,269.03,299,269.03
			c3.66,0.26,8.49,0.97,13.9,1.93C312.19,264.01,295.66,171.83,287.78,88.08z"/>
		<path class="st9" d="M333.05,92.37c-10.66-14.41-19.46-1.12-19.46-1.12c-0.1-0.12-0.2-0.22-0.3-0.34
			c0.3,0.34,17.26,177.12,19.22,184.04c4.95,1.1,9.88,2.24,14.47,3.34C347.01,259.75,340.34,188.17,333.05,92.37z"/>
	</g>
	<g class="st10">
		<path class="st11" d="M408.43,101.17c3.41-3.93,6.84-7.23,11.64-9.27c7.2-3.06,14.72-1.84,20.54,3.46l0,0c0.18,0.17-0.18-0.18,0,0
			c0,0,12.84-14.86,21.34-2.77c0.61-2.29,0.96-3.55,0.96-3.55c-12.64-13.13-21.02,3.04-21.02,3.04c-0.18-0.18-0.36-0.32-0.55-0.49
			l0,0c-5.81-5.3-13.33-6.51-20.54-3.46c-4.8,2.03-9.23,5.44-12.65,9.37c-13.03-13.46-23.52-1.89-24.94-0.23
			c-0.35-0.34-0.7-0.67-1.05-1.01c-0.17,1.55-0.33,3.11-0.33,4.67C383.78,98.74,395.85,88.44,408.43,101.17z"/>
		<path class="st7" d="M424.05,265.02c0.25-0.07,0.4-0.11,0.4-0.11c0.84-10.54,3.1-24.67,6.12-40.35
			C427.53,239.98,425.17,254.07,424.05,265.02z"/>
	</g>
	<path class="st12" d="M380.87,99.92c-4.69-3.93-10.85-6.26-16.74-3.58c-1.89,0.86-3.58,2.12-5.04,3.59
		c-0.35,0.36-0.69,0.73-1.03,1.1c-0.26,0.28-2.4-2.04-2.82-2.4c-4.25-3.59-9.75-5.79-15.26-4.03c-2.25,0.72-4.44,2-6.08,3.72
		c-0.27-0.39-0.53-0.75-0.8-1.11v0l0,0c-1.76-2.37-3.91-4.68-6.65-5.91c-4.69-2.53-10.14,0.93-12.8,4.79
		c-0.1-0.12-0.2-0.22-0.3-0.34l0,0c-15.3-18.06-24.52-1.69-24.52-1.69c-0.33-0.4-0.66-0.78-1-1.14l0,0
		c-7.61-8.38-19.14-9.18-28.95-4.15C270.66,127.29,299,269.03,299,269.03c11.27,0.81,22.51,3.48,33.52,5.92l0,0
		c4.95,1.1,9.88,2.24,14.47,3.34v0c4.85,1.16,9.69,2.35,14.52,3.56c0.59,0.15,9.15,2.03,9.14,2.34c0.39-8.1,0.8-16.21,1.23-24.31
		c0.92-17.21,1.92-34.41,2.96-51.62c1.79-29.49,3.7-58.98,5.7-88.46c0.43-6.34,0.86-12.68,1.3-19.02
		C381.52,100.49,381.21,100.2,380.87,99.92z"/>
	<g>
		<path class="st8" d="M423.85,147.87c0,0-21.3-9.26-34.92,12.58c-13.62,21.84-7.17,57.81,18.26,55.7S451.18,161.09,423.85,147.87z"
			/>
		<path class="st7" d="M422.55,152.33c0,0-18.43-8.01-30.21,10.88c-11.78,18.9-6.21,50.01,15.8,48.19
			C430.15,209.58,446.2,163.78,422.55,152.33z"/>
		<g>
			<path class="st8" d="M400.95,160.47c0,0,2.88,1.99,3.41,7.07c-1.17,5.15-4.02,9.08-8.48,10.77c-0.87,3.03-1.44,6.59-1.44,6.59
				s-2.14-0.9-3.22-3.25l2.52-11.19c-0.15-2.01-0.06-4.81-0.06-4.81S396.6,161.79,400.95,160.47z M398.12,169.18
				c-0.58,1.94-1.09,3.76-1.53,5.44l0.13-0.04c3.23-1.02,4.41-5.77,4.41-5.77S400.04,168.55,398.12,169.18z"/>
			<path class="st8" d="M410.83,161.29l2.41-3.71c0,0,1.88,0.83,1.5,6.69c-0.72,11.04-7.13,15.73-7.13,15.73
				c-3.33-0.61-4.01-4.61-4.01-4.61c1.02-12.64,5.23-15.23,5.23-15.23C409.27,161.02,410.05,161.3,410.83,161.29z M411.11,164.12
				c-1.31,2.6-2.82,6.46-3.16,10.96C409.03,174.74,411.66,170.09,411.11,164.12z"/>
			<path class="st8" d="M423.14,153.73c0,0,2.86,1.94,3.52,6.87c-0.97,4.99-3.61,8.78-7.87,10.41c-0.75,2.93-1.19,6.38-1.19,6.38
				s-2.1-0.88-3.22-3.16l2.09-10.83c-0.21-1.95-0.21-4.67-0.21-4.67S418.97,154.99,423.14,153.73z M420.66,162.16
				c-0.5,1.88-0.94,3.64-1.31,5.27l0.13-0.04c3.09-0.98,4.09-5.57,4.09-5.57S422.51,161.55,420.66,162.16z"/>
		</g>
		<g>
			<path class="st8" d="M401.49,193.32c0,0-1.52-0.78-2.51-2.7c-0.92,2.3-1.9,5.44-2.42,9.14l5.14-4.17c0,0-0.56,5.58-6.13,9.25
				c0,0-2.05-0.6-2.73-3.25c0.45-5.01,2.96-12.91,5.14-15.49c0.55-0.18,1-0.26,1.38-0.32c2.29-0.95,4.01-2.29,4.01-2.29
				S402.31,188.12,401.49,193.32z"/>
			<path class="st8" d="M408.13,185.07l2-3.24c0,0,1.58,0.7,1.28,5.79c-0.56,9.59-5.91,13.74-5.91,13.74
				c-2.79-0.5-3.37-3.96-3.37-3.96c0.81-10.98,4.32-13.28,4.32-13.28C406.83,184.86,407.48,185.1,408.13,185.07z M408.38,187.53
				c-1.08,2.27-2.34,5.64-2.6,9.55C406.68,196.77,408.86,192.7,408.38,187.53z"/>
			<path class="st8" d="M412.54,183.09c0,0,1.88-3.24,5.5-4.44c0,0,2.44,0.27,3.26,5.4c-0.49,3.9-2.39,6.19-3.96,7.26
				c1.38,1.25,2.9,1.42,2.9,1.42s-0.83,2.59-2.74,4.27c-1.51-0.62-2.12-2.92-2.57-4.4l-1.5,5.89c0,0-1.69-1-2.15-3.16l1.67-8.25
				L412.54,183.09z M416.53,185.7l-1.14,4.57c2.76-1.01,3.25-4.86,3.25-4.86S417.94,185.09,416.53,185.7z"/>
			<path class="st8" d="M426.94,186.85c1.03-8.47,0.93-12.36,0.93-12.36s1.77,0.89,3.03,1c-0.69,9.14-1.96,16.02-1.96,16.02
				c-1.35,0.47-2.98,2.1-2.98,2.1l-1.13-9.52c0,0-0.63,3.76-1.45,10.49c0,0-1.66-0.56-2.45-2.25c0.72-7.39,2.18-13.33,2.18-13.33
				s1.34-1.33,3.12-2.33L426.94,186.85z"/>
		</g>
		<polygon class="st8" points="428.77,164.47 428.07,167.41 425.97,167.97 427.85,169.48 427.35,172.3 429.71,169.7 431.3,170.53 
			430.8,168.53 431.94,166.22 430.26,166.81 		"/>
	</g>
	
		<linearGradient id="SVGID_1_" gradientUnits="userSpaceOnUse" x1="291.8266" y1="251.1478" x2="366.5412" y2="153.3201" gradientTransform="matrix(0.9999 -0.013 0.013 0.9999 -1.4229 5.5867)">
		<stop  offset="0.2032" style="stop-color:#636F81"/>
		<stop  offset="0.7807" style="stop-color:#E9C39F"/>
	</linearGradient>
	<path class="st13" d="M444.45,136.71c-5.45,6.35-11.43,11.75-17.77,17.18c-26.58,22.8-64.92,23.33-93.69,4.37
		c-20.97-13.82-39.06-31.12-57.29-48.51c-2.29-2.19-4.59-4.37-6.9-6.54c12.52,50.56,34.32,164.03,34.32,164.03
		c0.52,0.04,1.08,0.09,1.65,0.15c0.17,0.02,0.34,0.04,0.52,0.06c0.43,0.05,0.88,0.1,1.33,0.16c0.18,0.02,0.36,0.04,0.54,0.07
		c0.62,0.08,1.26,0.17,1.93,0.27c0.01,0,0.02,0,0.03,0c0.66,0.1,1.34,0.2,2.03,0.31c0.22,0.03,0.44,0.07,0.65,0.11
		c0.52,0.09,1.05,0.18,1.59,0.27c0.22,0.04,0.44,0.08,0.66,0.11c6.28,1.11,13.59,2.68,20.85,4.36l0,0
		c4.69,1.09,9.36,2.22,13.72,3.31l0,0c3.74,0.93,7.24,1.83,10.33,2.63c5.47,1.42,9.63,2.55,11.47,3.05
		c0.04,0.01,0.08,0.02,0.12,0.03c0.2,0.05,0.38,0.1,0.52,0.14c0.25,0.07,0.41,0.11,0.41,0.11c5.1-2.94,11.77-5.85,18.57-8.49
		c4.9-1.81,13.96-5.05,18.12-6.41c8.03-2.61,13.88-4.26,13.88-4.26c2.29-30.02,15.64-89.4,25.5-130.38
		C446.55,134.15,445.53,135.45,444.45,136.71z"/>
</g>
<g>
	<path class="st1" d="M213.98,307.41l10.98-13.43c0,0,20.85-12.01,20.58-9.06c-0.27,2.95,14.97,4.2,16.33,1.84s-3.77-7.97-3.77-7.97
		c35.14,7.55,57.26-0.89,56.14-2.86c-1.13-1.96-41.82-8.91-41.82-8.91s29.33,1.2,37.36-4.97c-104.2-43.76-218.72-12.83-266.15,3.84
		l24.35,7.57l14.51,6.28l10.06,0.84l-0.96,7.63l32.7,10.25c14.78,0.2,23.52,7.43,23.52,7.43l51.16,11.25L213.98,307.41z"/>
	<g>
		<polygon class="st14" points="48.33,136.56 73.8,270.14 83.3,276.78 255.48,255.64 236.92,130.78 		"/>
		<path class="st15" d="M63.38,136.1l-15.05,0.46l5.12,26.84c3.8,0.63,7.59,1.33,11.37,2.06C64.28,155.69,63.87,145.91,63.38,136.1z
			"/>
		<polygon class="st16" points="83.3,276.78 255.48,255.64 236.92,130.78 56.55,136.31 		"/>
		<polygon class="st15" points="239.06,145.21 236.92,130.78 56.55,136.31 61.95,164.66 		"/>
		<g>
			<path class="st17" d="M80.21,176.67l-1.61,0.15l0.7,3.85c-0.35,0.1-0.82,0.16-1.15,0.19c-0.31,0.03-0.81,0.06-1.19,0.02
				l-2.09-11.53l0.1-0.11c1.4-0.16,2.56-0.3,3.83-0.41c2.41-0.22,4.37,0.9,4.85,3.56C84.11,174.95,82.62,176.45,80.21,176.67z
				 M78.29,175.08c0.57-0.07,1.2-0.14,1.46-0.17c1.55-0.14,1.65-1.41,1.48-2.31c-0.17-0.92-0.7-2.12-2.26-1.98
				c-0.44,0.04-0.95,0.08-1.47,0.12L78.29,175.08z"/>
			<path class="st17" d="M92.18,174.43c0.67,0.17,1.19,0.7,1.55,1.38l0.95,1.65c0.26,0.46,0.6,0.89,1.04,1.16
				c-0.22,0.43-0.82,0.76-1.43,0.82c-0.85,0.08-1.23-0.35-1.71-1.2l-1.09-1.95c-0.38-0.66-0.83-1.17-1.84-1.07l-1.06,0.1l0.8,4.44
				c-0.37,0.1-0.82,0.16-1.15,0.19c-0.29,0.03-0.79,0.05-1.16,0.02L85,168.45l0.1-0.11c1.39-0.16,2.71-0.31,3.97-0.42
				c2.42-0.22,4.3,0.81,4.73,3.22C94.09,172.74,93.24,173.94,92.18,174.43z M88.27,173.54c0.61-0.09,1.26-0.17,1.59-0.2
				c1.51-0.14,1.7-1.07,1.54-2c-0.17-0.95-0.68-1.8-2.19-1.67c-0.42,0.04-1.06,0.1-1.61,0.13L88.27,173.54z"/>
			<path class="st17" d="M96.87,168.11c0.66-0.68,1.5-1.18,2.98-1.32c1.49-0.13,2.49,0.21,3.34,0.75c1.63,1.06,2.41,3,2.73,4.81
				c0.32,1.81,0.24,3.84-0.97,5.16c-0.64,0.68-1.48,1.18-2.97,1.32c-1.47,0.13-2.47-0.2-3.34-0.74c-1.62-1.06-2.42-3.01-2.75-4.82
				C95.57,171.45,95.67,169.43,96.87,168.11z M101.67,177.06c2.2-0.2,2.15-2.57,1.81-4.48c-0.34-1.91-1.11-4.2-3.32-4
				c-2.2,0.2-2.16,2.56-1.82,4.47C98.69,174.96,99.47,177.26,101.67,177.06z"/>
			<path class="st17" d="M116.26,176.52c-0.65,0.68-2.01,1.04-2.94,1.13c-1.45,0.13-2.58,0.2-4.09,0.31l-0.14-0.09l-2-11.38
				l0.1-0.11c1.48-0.19,2.62-0.3,4.07-0.43c0.93-0.08,2.38,0.03,3.24,0.57c1.81,1.11,2.41,2.88,2.75,4.83
				C117.6,173.31,117.64,175.12,116.26,176.52z M111.58,167.73c-0.66,0.06-1.19,0.11-1.89,0.15l1.43,8.17
				c0.69-0.08,1.22-0.13,1.88-0.19c2.26-0.21,2.2-2.45,1.88-4.3C114.55,169.69,113.84,167.52,111.58,167.73z"/>
			<path class="st17" d="M128.57,171.96c0.49,2.81-0.92,4.53-3.74,4.79c-2.8,0.25-4.76-1.16-5.25-3.97l-1.28-7.37l0.08-0.13
				l0.86-0.08c0.91-0.08,1.42,0.32,1.6,1.33l1.05,6.04c0.29,1.69,1.13,2.5,2.64,2.36c1.49-0.14,2.03-1.07,1.74-2.76l-1.28-7.39
				c0.35-0.1,0.8-0.16,1.12-0.19c0.29-0.03,0.81-0.06,1.18-0.02L128.57,171.96z"/>
			<path class="st17" d="M134.37,165.55c-1.63,0.15-2.13,1.7-1.65,4.46c0.44,2.58,1.64,3.87,3.26,3.72c1.13-0.1,1.99-0.74,2.77-1.5
				c0.53,0.26,1.14,0.85,1.34,1.36c-0.79,1.03-2.35,1.97-4.16,2.14c-3.46,0.32-5.12-2.57-5.63-5.52c-0.72-4.22,1.19-6.25,3.83-6.49
				c2.6-0.23,4.53,1.19,4.85,3.02c0.14,0.84-0.23,1.3-1.09,1.38c-0.34,0.03-0.61,0-0.93-0.04
				C136.77,166.73,136.05,165.4,134.37,165.55z"/>
			<path class="st17" d="M142.65,166.38c-0.08-0.45-0.11-0.78-0.2-1.25l-0.01,0c-0.24,0.02-0.78,0.09-1.02,0.11l-1.9,0.17
				c-0.13-0.33-0.2-0.67-0.24-0.93c-0.04-0.25-0.09-0.61-0.08-0.95l8.17-0.73c0.11,0.23,0.22,0.58,0.26,0.86
				c0.13,0.74-0.22,1.04-1.06,1.12l-0.8,0.07c-0.24,0.02-0.79,0.05-1.03,0.08l-0.02,0c0.08,0.47,0.15,0.79,0.23,1.24l1.41,8.36
				c-0.38,0.11-0.8,0.16-1.14,0.19c-0.32,0.03-0.75,0.05-1.16,0.02L142.65,166.38z"/>
			<path class="st17" d="M149,162.65c0.33-0.1,0.82-0.16,1.13-0.19c0.32-0.03,0.77-0.05,1.16-0.02l1.93,11.46
				c-0.36,0.1-0.8,0.16-1.12,0.19c-0.31,0.03-0.8,0.06-1.15,0.02L149,162.65z"/>
			<path class="st17" d="M155.42,162.87c0.65-0.67,1.48-1.17,2.92-1.3c1.46-0.13,2.43,0.21,3.26,0.75c1.59,1.05,2.34,2.97,2.63,4.77
				c0.3,1.79,0.2,3.8-0.99,5.1c-0.63,0.67-1.45,1.17-2.91,1.3c-1.44,0.13-2.41-0.2-3.26-0.74c-1.57-1.05-2.35-2.98-2.65-4.78
				C154.13,166.18,154.24,164.17,155.42,162.87z M160.04,171.73c2.15-0.2,2.12-2.54,1.81-4.43c-0.31-1.89-1.05-4.16-3.21-3.97
				c-2.16,0.19-2.13,2.53-1.81,4.42C157.14,169.65,157.89,171.93,160.04,171.73z"/>
			<path class="st17" d="M174.25,160.41l1.87,11.37c-0.36,0.12-1.06,0.21-1.35,0.24s-0.86,0.06-1.35,0.04l-4.18-6.19
				c-0.53-0.82-1.02-1.59-1.4-2.25l-0.06,0.02c0.31,1.28,0.72,3.23,0.94,4.54l0.7,4.25c-0.36,0.1-0.73,0.15-1.02,0.18
				c-0.29,0.03-0.73,0.05-1.1,0.01l-1.89-11.4c0.34-0.12,1.05-0.21,1.32-0.23c0.3-0.03,0.86-0.06,1.35-0.04l4.15,6.2l1.5,2.37
				l0.05-0.02c-0.34-1.45-0.73-3.41-0.92-4.57l-0.5-3.06c-0.17-1.01,0.13-1.42,1.02-1.5l0.73-0.07L174.25,160.41z"/>
		</g>
		<g>
			<path class="st17" d="M87.53,200.09c-0.6,0.62-1.86,0.96-2.72,1.05c-1.34,0.13-2.39,0.2-3.78,0.3l-0.13-0.08l-1.89-10.44l0.1-0.1
				c1.37-0.17,2.42-0.29,3.77-0.42c0.86-0.08,2.2,0.02,3,0.51c1.68,1.01,2.24,2.63,2.57,4.43C88.77,197.14,88.81,198.8,87.53,200.09
				z M83.17,192.04c-0.61,0.06-1.1,0.1-1.75,0.15l1.36,7.49c0.64-0.08,1.13-0.12,1.74-0.18c2.09-0.2,2.03-2.26,1.72-3.96
				C85.93,193.83,85.26,191.84,83.17,192.04z"/>
			<path class="st17" d="M89.57,189.85c0.31-0.09,0.77-0.15,1.06-0.18c0.3-0.03,0.72-0.05,1.08-0.02l1.9,10.57
				c-0.34,0.1-0.75,0.15-1.05,0.18c-0.29,0.03-0.75,0.06-1.08,0.03L89.57,189.85z"/>
			<path class="st17" d="M100.96,194.9c0.61,0.15,1.08,0.63,1.42,1.25l0.86,1.5c0.24,0.42,0.55,0.81,0.95,1.06
				c-0.2,0.4-0.75,0.7-1.3,0.75c-0.78,0.07-1.12-0.32-1.56-1.09l-0.99-1.77c-0.35-0.59-0.75-1.06-1.68-0.97l-0.97,0.09l0.72,4.05
				c-0.34,0.09-0.75,0.15-1.05,0.18c-0.27,0.03-0.72,0.05-1.06,0.02l-1.88-10.49l0.09-0.1c1.27-0.15,2.48-0.29,3.62-0.4
				c2.21-0.21,3.93,0.72,4.32,2.92C102.71,193.35,101.93,194.45,100.96,194.9z M97.4,194.1c0.55-0.08,1.15-0.16,1.46-0.19
				c1.38-0.13,1.56-0.98,1.4-1.83c-0.15-0.87-0.62-1.64-2-1.51c-0.38,0.04-0.97,0.09-1.47,0.12L97.4,194.1z"/>
			<path class="st17" d="M112.78,197.42c0,0.66-0.41,1.04-1.19,1.12l-4.45,0.42c-0.76,0.07-1.3-0.35-1.44-1.12l-1.64-9.24l0.09-0.12
				l6.61-0.62c0.12,0.3,0.18,0.58,0.22,0.81c0.04,0.23,0.04,0.62-0.01,0.94l-3.49,0.33l-1.05,0.1c0.07,0.4,0.13,0.67,0.2,1.07
				l0.28,1.59c0.39-0.05,0.81-0.09,1.03-0.11l2.68-0.25c0.14,0.25,0.24,0.6,0.28,0.84c0.04,0.23,0.07,0.59,0.02,0.86l-2.68,0.25
				l-1.03,0.1l0.32,1.82c0.06,0.34,0.09,0.6,0.15,0.96c0.33-0.05,0.68-0.1,1.1-0.14l3.88-0.37
				C112.73,196.83,112.79,197.15,112.78,197.42z"/>
			<path class="st17" d="M117.14,188.73c-1.5,0.14-1.96,1.56-1.52,4.09c0.41,2.36,1.52,3.54,3.02,3.39c1.04-0.1,1.83-0.69,2.55-1.38
				c0.49,0.24,1.05,0.78,1.24,1.24c-0.73,0.95-2.17,1.82-3.84,1.98c-3.19,0.3-4.73-2.34-5.2-5.04c-0.68-3.86,1.08-5.73,3.52-5.96
				c2.4-0.22,4.18,1.07,4.48,2.75c0.14,0.77-0.21,1.19-1,1.27c-0.31,0.03-0.56,0.01-0.85-0.03
				C119.35,189.81,118.69,188.59,117.14,188.73z"/>
			<path class="st17" d="M124.77,189.46c-0.07-0.41-0.11-0.71-0.18-1.14l-0.02,0c-0.22,0.02-0.72,0.08-0.94,0.11l-1.75,0.16
				c-0.12-0.3-0.19-0.61-0.23-0.86c-0.04-0.23-0.08-0.56-0.07-0.87l7.53-0.7c0.1,0.21,0.2,0.53,0.25,0.79
				c0.12,0.68-0.2,0.96-0.97,1.03l-0.74,0.07c-0.22,0.02-0.73,0.05-0.95,0.07l-0.01,0c0.07,0.43,0.14,0.72,0.21,1.14l1.33,7.66
				c-0.35,0.1-0.74,0.15-1.06,0.18c-0.3,0.03-0.69,0.05-1.07,0.02L124.77,189.46z"/>
			<path class="st17" d="M131.73,186.65c0.6-0.62,1.36-1.08,2.7-1.2c1.35-0.13,2.25,0.18,3.02,0.67c1.47,0.96,2.17,2.72,2.45,4.36
				c0.28,1.64,0.2,3.49-0.9,4.69c-0.58,0.62-1.34,1.08-2.69,1.21c-1.33,0.13-2.23-0.18-3.01-0.66c-1.46-0.95-2.18-2.73-2.46-4.37
				C130.55,189.68,130.65,187.84,131.73,186.65z M136.03,194.75c1.99-0.19,1.96-2.34,1.66-4.07c-0.3-1.74-0.99-3.81-2.98-3.63
				c-2,0.19-1.96,2.33-1.66,4.06C133.35,192.86,134.04,194.94,136.03,194.75z"/>
			<path class="st17" d="M147.37,190.52c0.6,0.15,1.06,0.63,1.38,1.24l0.84,1.49c0.23,0.41,0.53,0.81,0.92,1.05
				c-0.2,0.39-0.74,0.69-1.28,0.75c-0.76,0.07-1.1-0.32-1.53-1.08l-0.97-1.76c-0.34-0.59-0.73-1.05-1.64-0.97l-0.95,0.09l0.68,4.02
				c-0.33,0.09-0.74,0.15-1.03,0.18c-0.27,0.02-0.71,0.05-1.05,0.02l-1.78-10.41l0.09-0.1c1.25-0.15,2.43-0.29,3.56-0.39
				c2.17-0.2,3.85,0.72,4.22,2.9C149.1,188.98,148.33,190.07,147.37,190.52z M143.87,189.72c0.54-0.08,1.13-0.15,1.43-0.18
				c1.36-0.13,1.53-0.97,1.39-1.81c-0.15-0.86-0.59-1.63-1.96-1.5c-0.37,0.03-0.95,0.09-1.44,0.12L143.87,189.72z"/>
		</g>
		<g>
			<path class="st17" d="M87.18,212.11c-1.51,0.15-1.97,1.57-1.51,4.1c0.43,2.35,1.55,3.53,3.06,3.38c1.05-0.1,1.85-0.7,2.56-1.4
				c0.49,0.23,1.06,0.77,1.26,1.24c-0.73,0.95-2.18,1.83-3.86,1.99c-3.21,0.32-4.78-2.31-5.27-5.01c-0.7-3.85,1.07-5.73,3.53-5.97
				c2.42-0.24,4.22,1.05,4.53,2.73c0.14,0.77-0.21,1.19-1,1.27c-0.32,0.03-0.57,0.01-0.86-0.02
				C89.41,213.18,88.74,211.96,87.18,212.11z"/>
			<path class="st17" d="M95.88,218.07l-0.32,2.47c-0.26,0.09-0.57,0.13-0.91,0.17c-0.33,0.03-0.77,0.03-1.04-0.04l-0.1-0.1
				l1.68-10.69c0.34-0.08,0.86-0.16,1.22-0.2c0.33-0.03,0.89-0.06,1.24-0.03l5.32,10c-0.27,0.2-0.76,0.34-1.17,0.38
				c-0.68,0.07-1.05-0.13-1.46-0.98l-0.69-1.35c-0.24,0.02-0.61,0.08-0.77,0.09l-2.22,0.22C96.51,218.02,96.14,218.06,95.88,218.07z
				 M96.11,216.39c0.22-0.02,0.55-0.07,0.71-0.08l1.36-0.13c0.14-0.01,0.45-0.03,0.67-0.05l-0.75-1.52c-0.43-0.85-0.99-2-1.39-2.9
				l-0.1,0.01c-0.02,0.8-0.15,1.94-0.23,2.67L96.11,216.39z"/>
			<path class="st17" d="M103.22,209.11c0.45-0.12,1.04-0.21,1.41-0.25c0.38-0.04,0.91-0.06,1.36-0.02l1.97,4.14
				c0.19,0.42,0.86,1.96,1.06,2.56l0.11-0.01c-0.01-0.62,0.1-2.24,0.14-2.68l0.45-4.37c0.46-0.12,0.96-0.2,1.32-0.24
				c0.38-0.04,0.97-0.06,1.46-0.03l2.67,10.34c-0.29,0.11-0.71,0.18-1.05,0.21c-0.33,0.03-0.63,0.05-0.94,0.03l-1.17-4.89
				c-0.23-0.94-0.54-2.35-0.71-3.32l-0.11,0.01l-0.67,6.85c-0.31,0.08-0.78,0.15-1.08,0.18c-0.28,0.03-0.76,0.04-1.09,0.03
				l-3.03-6.49l-0.11,0.01c0.16,0.97,0.36,2.38,0.47,3.34l0.57,4.95c-0.29,0.08-0.61,0.12-0.94,0.15c-0.33,0.03-0.76,0.05-1.08,0
				L103.22,209.11z"/>
			<path class="st17" d="M124.29,216.71c0,0.65-0.41,1.04-1.18,1.11l-4.42,0.44c-0.76,0.07-1.29-0.34-1.43-1.1l-1.61-9.16l0.09-0.12
				l6.57-0.64c0.12,0.3,0.18,0.57,0.22,0.8c0.04,0.23,0.04,0.62-0.01,0.94l-3.46,0.34l-1.04,0.1c0.07,0.4,0.13,0.66,0.2,1.06
				l0.28,1.58c0.39-0.05,0.8-0.09,1.02-0.12l2.66-0.26c0.14,0.25,0.23,0.6,0.27,0.83c0.04,0.23,0.07,0.58,0.02,0.85l-2.66,0.26
				l-1.02,0.1l0.32,1.81c0.06,0.34,0.09,0.6,0.15,0.95c0.33-0.05,0.67-0.1,1.1-0.14l3.85-0.38
				C124.23,216.13,124.29,216.45,124.29,216.71z"/>
			<path class="st17" d="M131.07,212.44c0.6,0.14,1.06,0.62,1.39,1.23l0.85,1.48c0.23,0.41,0.54,0.8,0.93,1.04
				c-0.2,0.39-0.74,0.69-1.29,0.75c-0.77,0.08-1.1-0.31-1.54-1.07l-0.97-1.75c-0.34-0.59-0.74-1.05-1.65-0.96l-0.96,0.09l0.69,4
				c-0.33,0.1-0.74,0.15-1.04,0.18c-0.27,0.03-0.71,0.06-1.05,0.03l-1.8-10.37l0.09-0.1c1.25-0.15,2.44-0.3,3.57-0.41
				c2.18-0.21,3.87,0.7,4.24,2.87C132.8,210.9,132.03,211.99,131.07,212.44z M127.56,211.67c0.54-0.08,1.14-0.16,1.44-0.19
				c1.36-0.13,1.54-0.97,1.39-1.81c-0.15-0.86-0.6-1.62-1.97-1.49c-0.38,0.04-0.96,0.09-1.45,0.13L127.56,211.67z"/>
			<path class="st17" d="M137.19,213.99l-0.32,2.45c-0.26,0.09-0.57,0.13-0.89,0.16c-0.33,0.03-0.76,0.03-1.02-0.04l-0.1-0.1
				l1.72-10.62c0.33-0.08,0.85-0.16,1.21-0.19c0.33-0.03,0.88-0.05,1.22-0.03l5.18,9.93c-0.27,0.2-0.75,0.34-1.15,0.38
				c-0.67,0.07-1.04-0.13-1.44-0.97l-0.68-1.34c-0.23,0.02-0.61,0.08-0.76,0.09l-2.19,0.22
				C137.81,213.95,137.45,213.98,137.19,213.99z M137.43,212.33c0.22-0.02,0.55-0.07,0.7-0.08l1.34-0.13
				c0.14-0.01,0.44-0.03,0.66-0.05l-0.74-1.51c-0.41-0.84-0.96-1.99-1.35-2.88l-0.09,0.01c-0.02,0.79-0.16,1.93-0.25,2.65
				L137.43,212.33z"/>
		</g>
		<g>
			<path class="st17" d="M101.66,242.55c-0.47,0.51-1.46,0.8-2.14,0.88c-1.06,0.13-1.89,0.2-3,0.31l-0.1-0.06l-1.64-8.24l0.07-0.08
				c1.08-0.17,1.92-0.28,2.99-0.41c0.68-0.08,1.74-0.03,2.39,0.34c1.35,0.77,1.82,2.04,2.1,3.46
				C102.61,240.19,102.66,241.51,101.66,242.55z M98.09,236.25c-0.48,0.06-0.88,0.1-1.38,0.15l1.17,5.91
				c0.5-0.07,0.9-0.12,1.38-0.18c1.66-0.2,1.58-1.83,1.32-3.17C100.31,237.62,99.75,236.06,98.09,236.25z"/>
			<path class="st17" d="M105.71,240.69l-0.22,1.98c-0.2,0.08-0.45,0.12-0.72,0.15c-0.27,0.03-0.61,0.04-0.83-0.01l-0.08-0.08
				l1.2-8.56c0.27-0.07,0.68-0.14,0.97-0.18c0.27-0.03,0.71-0.06,0.99-0.04l4.38,7.89c-0.21,0.16-0.6,0.28-0.93,0.32
				c-0.54,0.07-0.84-0.08-1.18-0.76l-0.57-1.07c-0.19,0.02-0.49,0.07-0.61,0.09l-1.77,0.21
				C106.2,240.64,105.91,240.68,105.71,240.69z M105.87,239.34c0.18-0.02,0.44-0.06,0.57-0.08l1.09-0.13
				c0.11-0.01,0.36-0.03,0.53-0.05l-0.62-1.2c-0.35-0.67-0.81-1.58-1.15-2.29l-0.08,0.01c0,0.64-0.09,1.55-0.15,2.13L105.87,239.34z
				"/>
			<path class="st17" d="M112.72,235.56c-0.06-0.33-0.1-0.56-0.16-0.91l-0.01,0c-0.18,0.02-0.58,0.08-0.75,0.1l-1.4,0.17
				c-0.1-0.24-0.16-0.48-0.2-0.68c-0.04-0.19-0.07-0.44-0.07-0.69l6.03-0.72c0.08,0.16,0.17,0.42,0.21,0.62
				c0.11,0.54-0.15,0.77-0.76,0.84l-0.59,0.07c-0.18,0.02-0.58,0.06-0.76,0.08l-0.01,0c0.07,0.34,0.12,0.57,0.19,0.9l1.19,6.07
				c-0.28,0.08-0.59,0.13-0.84,0.16c-0.24,0.03-0.56,0.06-0.86,0.04L112.72,235.56z"/>
			<path class="st17" d="M124.36,239.61c0.01,0.52-0.31,0.84-0.93,0.91l-3.53,0.43c-0.6,0.07-1.04-0.25-1.16-0.86l-1.42-7.3
				l0.07-0.1l5.25-0.62c0.1,0.24,0.15,0.46,0.19,0.64c0.04,0.18,0.04,0.49,0,0.75l-2.77,0.33l-0.83,0.1
				c0.06,0.32,0.11,0.52,0.18,0.84l0.24,1.26c0.31-0.05,0.64-0.09,0.81-0.11l2.12-0.25c0.11,0.2,0.19,0.47,0.23,0.66
				c0.03,0.18,0.06,0.47,0.03,0.68l-2.12,0.25l-0.82,0.1l0.28,1.44c0.05,0.27,0.08,0.48,0.13,0.76c0.26-0.04,0.54-0.09,0.87-0.13
				l3.08-0.37C124.31,239.14,124.36,239.4,124.36,239.61z"/>
		</g>
		<g>
			<path class="st17" d="M150.18,236.11c0.79,0.35,1.79,0.6,2.66,0.5c0.86-0.1,1.2-0.59,1.11-1.11c-0.08-0.41-0.4-0.77-1.16-0.99
				l-1.58-0.43c-1.11-0.31-1.94-0.87-2.15-1.97c-0.27-1.43,0.78-2.6,2.46-2.8c1.11-0.13,2.2,0.09,2.91,0.33
				c0.06,0.47-0.07,0.96-0.35,1.31c-0.7-0.23-1.64-0.4-2.3-0.32c-0.81,0.1-1.15,0.58-1.06,1.07c0.08,0.41,0.43,0.64,1.06,0.82
				l1.58,0.43c1.22,0.34,2.1,1.04,2.3,2.1c0.27,1.44-0.57,2.64-2.68,2.9c-1.02,0.12-2.25-0.06-3.24-0.53
				C149.7,236.95,149.91,236.42,150.18,236.11z"/>
			<path class="st17" d="M159.16,229.73c-1.18,0.14-1.52,1.28-1.15,3.26c0.35,1.85,1.23,2.76,2.4,2.62c0.82-0.1,1.44-0.58,1.99-1.14
				c0.39,0.18,0.83,0.59,0.99,0.96c-0.57,0.76-1.68,1.48-3,1.64c-2.5,0.3-3.74-1.75-4.13-3.87c-0.57-3.03,0.8-4.55,2.71-4.77
				c1.88-0.22,3.29,0.76,3.54,2.08c0.11,0.6-0.15,0.95-0.77,1.02c-0.25,0.03-0.44,0.02-0.67-0.01
				C160.91,230.54,160.38,229.59,159.16,229.73z"/>
			<path class="st17" d="M170.36,234.92c0.01,0.52-0.31,0.83-0.92,0.9l-3.47,0.42c-0.59,0.07-1.02-0.25-1.13-0.85l-1.35-7.24
				l0.07-0.09l5.16-0.61c0.1,0.24,0.15,0.45,0.18,0.63c0.03,0.18,0.04,0.49,0,0.74l-2.72,0.32l-0.82,0.1
				c0.06,0.31,0.11,0.52,0.17,0.83l0.23,1.25c0.31-0.05,0.63-0.09,0.8-0.11l2.09-0.25c0.11,0.2,0.19,0.47,0.22,0.65
				c0.03,0.18,0.06,0.46,0.03,0.68l-2.09,0.25l-0.8,0.1l0.27,1.43c0.05,0.27,0.08,0.47,0.13,0.75c0.26-0.04,0.53-0.09,0.86-0.13
				l3.02-0.36C170.32,234.46,170.36,234.71,170.36,234.92z"/>
			<path class="st17" d="M176.98,226.47l1.51,8.21c-0.26,0.09-0.77,0.18-0.98,0.2c-0.21,0.03-0.63,0.07-0.98,0.06l-3.13-4.4
				c-0.4-0.58-0.76-1.13-1.05-1.6l-0.05,0.02c0.25,0.92,0.57,2.33,0.74,3.27l0.57,3.07c-0.26,0.08-0.53,0.13-0.74,0.15
				c-0.21,0.03-0.53,0.05-0.8,0.03l-1.52-8.23c0.25-0.09,0.76-0.18,0.96-0.2c0.22-0.03,0.63-0.06,0.99-0.06l3.11,4.41l1.13,1.69
				l0.03-0.02c-0.27-1.04-0.58-2.46-0.73-3.29l-0.41-2.21c-0.13-0.73,0.08-1.04,0.73-1.11l0.53-0.06L176.98,226.47z"/>
			<path class="st17" d="M185.84,233.05c0.01,0.52-0.31,0.83-0.91,0.9l-3.45,0.42c-0.59,0.07-1.01-0.25-1.12-0.85l-1.32-7.22
				l0.07-0.09l5.13-0.61c0.09,0.23,0.15,0.45,0.18,0.63c0.03,0.18,0.04,0.49,0,0.74l-2.7,0.32l-0.81,0.1
				c0.06,0.31,0.11,0.52,0.16,0.83l0.23,1.24c0.31-0.05,0.63-0.09,0.8-0.11l2.08-0.25c0.11,0.19,0.19,0.47,0.22,0.65
				c0.03,0.18,0.06,0.46,0.02,0.68l-2.08,0.25l-0.8,0.1l0.26,1.42c0.05,0.26,0.07,0.47,0.12,0.75c0.26-0.04,0.52-0.09,0.85-0.13
				l3.01-0.36C185.79,232.59,185.84,232.85,185.84,233.05z"/>
		</g>
		<g>
			<path class="st17" d="M201.9,225.28c-0.06-0.33-0.09-0.56-0.15-0.89l-0.01,0c-0.17,0.02-0.56,0.08-0.73,0.1l-1.36,0.16
				c-0.09-0.24-0.15-0.47-0.18-0.67c-0.03-0.18-0.07-0.44-0.06-0.68l5.83-0.69c0.08,0.16,0.16,0.41,0.2,0.62
				c0.1,0.53-0.15,0.76-0.75,0.83l-0.57,0.07c-0.17,0.02-0.56,0.06-0.73,0.08l-0.01,0c0.06,0.34,0.11,0.56,0.17,0.89l1.07,5.99
				c-0.27,0.08-0.57,0.13-0.82,0.16c-0.23,0.03-0.54,0.05-0.83,0.04L201.9,225.28z"/>
			<path class="st17" d="M208.79,228.67l-0.24,1.94c-0.2,0.07-0.44,0.12-0.69,0.15c-0.26,0.03-0.59,0.03-0.8-0.02l-0.08-0.08
				l1.27-8.41c0.26-0.07,0.66-0.14,0.94-0.17c0.26-0.03,0.69-0.06,0.95-0.04l4.09,7.76c-0.21,0.16-0.58,0.28-0.9,0.32
				c-0.52,0.06-0.81-0.09-1.12-0.75l-0.54-1.05c-0.18,0.02-0.47,0.07-0.59,0.08l-1.7,0.21
				C209.27,228.62,208.99,228.66,208.79,228.67z M208.96,227.35c0.17-0.02,0.42-0.06,0.54-0.08l1.05-0.13
				c0.11-0.01,0.34-0.03,0.51-0.05l-0.58-1.18c-0.33-0.66-0.76-1.55-1.07-2.25l-0.07,0.01c-0.01,0.63-0.11,1.52-0.17,2.09
				L208.96,227.35z"/>
			<path class="st17" d="M220.6,229.24c-0.61,0.07-0.87-0.21-1.18-0.82l-0.83-1.5c-0.44-0.79-0.83-1.06-1.47-0.99
				c-0.17,0.02-0.4,0.06-0.67,0.11l0.63,3.54c-0.25,0.08-0.57,0.13-0.8,0.16c-0.22,0.03-0.56,0.06-0.82,0.04l-1.45-8.2
				c0.25-0.08,0.58-0.13,0.8-0.16c0.23-0.03,0.56-0.05,0.82-0.04l0.58,3.3l0.48-0.07c0.28-0.03,0.35-0.14,0.44-0.43l0.93-2.54
				c0.15-0.42,0.28-0.65,0.79-0.71c0.27-0.03,0.63-0.05,0.97-0.07l0.12,0.11l-1.14,3.11c-0.12,0.32-0.25,0.6-0.46,0.82
				c0.85,0.07,1.26,0.56,1.66,1.25l0.85,1.54c0.23,0.39,0.38,0.68,0.77,0.92C221.44,228.96,221.02,229.19,220.6,229.24z"/>
			<path class="st17" d="M228.03,227.49c0,0.51-0.31,0.82-0.9,0.89l-3.4,0.41c-0.58,0.07-0.99-0.25-1.1-0.84l-1.26-7.17l0.07-0.09
				l5.05-0.6c0.09,0.23,0.14,0.45,0.17,0.63c0.03,0.18,0.04,0.49-0.01,0.74l-2.66,0.32l-0.8,0.1c0.05,0.31,0.1,0.51,0.16,0.83
				l0.22,1.24c0.3-0.05,0.61-0.08,0.78-0.11l2.04-0.24c0.11,0.19,0.18,0.47,0.21,0.65c0.03,0.18,0.05,0.46,0.02,0.67l-2.04,0.24
				l-0.79,0.09l0.25,1.41c0.05,0.26,0.07,0.47,0.12,0.74c0.25-0.04,0.52-0.09,0.84-0.13l2.96-0.36
				C227.99,227.03,228.03,227.28,228.03,227.49z"/>
		</g>
		<polygon class="st17" points="180.08,169.95 233.69,164.55 234.04,166.44 180.49,171.53 		"/>
		<polygon class="st17" points="155.89,191.78 237.17,183.74 237.51,185.61 156.29,193.36 		"/>
		<polygon class="st17" points="157.68,212.8 239.91,204.28 240.25,206.14 158.09,214.37 		"/>
		<polygon class="st17" points="245.55,234.9 245.21,233.06 86.81,251.56 87.23,253.13 136.07,247.51 139.25,265.29 140.84,264.99 
			137.73,247.32 193.68,240.87 196.61,258.27 198.17,257.98 195.3,240.69 		"/>
		<polygon class="st16" points="20.74,92.48 45.61,153.43 246.35,131.16 242.38,96.48 51.42,116.62 237.74,62.73 222.14,27.7 		"/>
		<path class="st16" d="M54.07,150.2l189.75-21.82l-3.73-28.28L56.25,119.55l-3.83-7.51l181.36-51.36l-13.32-29.43L31.88,91.83
			C33.77,97.2,51.19,142.63,54.07,150.2z"/>
		<path class="st17" d="M191.68,37.5l-29.65,9.54c13.46,7.14,23.96,18.64,36.08,27.16l33.43-9.67
			C218.19,55.82,204.44,48.17,191.68,37.5z"/>
		<path class="st17" d="M128.4,57.85L96.48,68.12c13.18,8.46,26.26,16.74,39.19,24.14l34.34-9.93
			C156.03,75.21,142.95,65.74,128.4,57.85z"/>
		<path class="st17" d="M49.4,103.12c3.87,3.4,7.52,5.99,11.89,8.6c0.68,0.4,1.38,0.9,2.04,1.45l30.36-8.78
			c-11.52-7.77-21.89-16.22-32.76-24.84L32.19,88.8C38.26,93.18,43.78,98.19,49.4,103.12z"/>
		<path class="st17" d="M65.25,115.16c0.74,0.99-8.8,33.4-10.15,37.22l30.2-3.35c5.79-12.65,17.65-37.84,17.65-37.84L65.25,115.16z"
			/>
		<path class="st17" d="M139.17,107.37c-5.39,12.23-10,24.83-14.53,37.3l34.02-3.77c4.65-12.57,8.62-25.45,14.58-37.12
			L139.17,107.37z"/>
		<path class="st17" d="M200.8,100.86c-4.96,12.46-9.72,24.87-15.04,37.02l31.51-3.5c6.43-12.34,14.45-24.04,19.52-37.32
			L200.8,100.86z"/>
		<polygon class="st16" points="223.08,29.82 222.14,27.7 216.58,29.49 		"/>
		<path class="st14" d="M28.49,89.99l-7.75,2.49l24.87,60.96l7.02-0.78C49.22,143.43,28.49,89.99,28.49,89.99z"/>
		<path class="st18" d="M36.35,98.89l17.41,45.03c0.45,1.18,1.7,1.94,2.95,1.8l41.21-4.57c1.4-0.16,2.3-1.42,1.98-2.8l-3.5-15.23
			c-0.13-0.56-0.44-1.07-0.89-1.46L60.33,91.23c-0.71-0.62-1.67-0.86-2.53-0.64l-19.92,5.18C36.51,96.13,35.82,97.53,36.35,98.89z"
			/>
		<path class="st18" d="M37.91,97.92l17.03,44.1c0.44,1.15,1.67,1.9,2.88,1.76l40.35-4.46c1.38-0.15,2.25-1.39,1.94-2.74
			l-3.42-14.92c-0.13-0.55-0.43-1.05-0.87-1.43L61.38,90.42c-0.7-0.6-1.64-0.84-2.48-0.62l-19.5,5.07
			C38.07,95.22,37.4,96.59,37.91,97.92z"/>
		<path class="st19" d="M42.45,109.66c2.1-3.46,9.64-15.99,11.54-18.58l-14.58,3.79c-1.34,0.35-2.01,1.72-1.5,3.05L42.45,109.66z"/>
		<path class="st19" d="M73.34,100.77l-3.92-3.39C63.06,108,56.9,118.73,49.88,128.89l2.92,7.57
			C55.31,130.73,71.83,102.99,73.34,100.77z"/>
		<path class="st19" d="M100.12,136.58l-3.42-14.92c0,0,0-0.01,0-0.01c-2.84,6.07-5.02,12.54-7.73,18.69l9.21-1.02
			C99.55,139.17,100.43,137.93,100.12,136.58z"/>
		<path class="st20" d="M60.49,104.26c0.18,2.73-2.29,4.86-5.52,4.75c-3.23-0.11-6-2.41-6.18-5.15c-0.18-2.74,2.29-4.87,5.53-4.76
			C57.55,99.21,60.31,101.52,60.49,104.26z"/>
		<path class="st20" d="M69.59,131.66c0.17,2.71-2.28,4.83-5.48,4.74c-3.21-0.09-5.95-2.36-6.13-5.07
			c-0.18-2.72,2.28-4.84,5.49-4.74C66.68,126.68,69.42,128.95,69.59,131.66z"/>
		<path class="st20" d="M91.4,129.3c0.16,2.7-2.28,4.81-5.45,4.72c-3.18-0.09-5.9-2.35-6.06-5.06c-0.17-2.71,2.28-4.82,5.46-4.72
			C88.53,124.33,91.24,126.6,91.4,129.3z"/>
		<path class="st21" d="M61.02,103.41c0.18,2.73-2.29,4.86-5.52,4.75c-3.23-0.11-6-2.41-6.18-5.15c-0.18-2.74,2.29-4.87,5.53-4.76
			C58.09,98.36,60.85,100.68,61.02,103.41z"/>
		<path class="st21" d="M70.12,130.82c0.17,2.71-2.28,4.83-5.48,4.74c-3.21-0.09-5.95-2.36-6.13-5.07
			c-0.18-2.72,2.28-4.84,5.49-4.74C67.21,125.84,69.95,128.11,70.12,130.82z"/>
		<path class="st21" d="M91.93,128.46c0.16,2.7-2.28,4.81-5.45,4.72c-3.18-0.09-5.9-2.36-6.06-5.06c-0.17-2.71,2.28-4.82,5.46-4.72
			C89.06,123.49,91.77,125.76,91.93,128.46z"/>
		<path class="st22" d="M57.34,106.08c-3.42-0.12-5.5-2.56-6.03-5.14c-0.78,0.63-1.24,1.53-1.17,2.56c0.13,1.98,2.13,3.65,4.47,3.72
			c1.3,0.04,2.41-0.42,3.13-1.18C57.6,106.06,57.48,106.08,57.34,106.08z"/>
		<path class="st22" d="M65.86,133.23c-3.09-0.09-5.07-2.09-5.81-4.37c-0.5,0.58-0.78,1.31-0.73,2.12c0.13,1.96,2.11,3.6,4.43,3.67
			c1.46,0.04,2.71-0.56,3.39-1.5C66.75,133.21,66.32,133.24,65.86,133.23z"/>
		<path class="st22" d="M82.62,125.9c-0.91,0.62-1.47,1.59-1.4,2.7c0.12,1.95,2.08,3.59,4.38,3.66c1.06,0.03,2-0.29,2.7-0.83
			C84.91,131.16,82.93,128.54,82.62,125.9z"/>
	</g>
	<path class="st23" d="M239.43,147.67c-0.79,0.34-1.59,0.67-2.42,0.96c-3.15,1.1-6.31,1.77-9.55,2.32
		c-3.35,3.79-6.64,7.71-10.61,10.18c-3.09,1.92-6.4,3.41-9.76,4.81c3.89,2.96,7.52,6.19,11.75,8.72
		c10.18,6.08,9.98,23.59-3.96,22.48c-10.36-0.83-18.66-4.46-27.06-10.4c-1.99,2.86-5.28,4.83-9.92,4.83c-2.8,0-5.15-0.73-7.07-1.94
		c-6.19,13.85-16.25,44-22.34,47.8c-16.84,10.5-39.42-0.13-57.79,4.48c-0.14,0.62-0.3,1.45-0.44,2.58
		c-0.25,1.63-0.41,3.27-0.48,4.92c-0.3,4.37-0.62,8.72-1.06,13.08c-0.48,4.78-1.16,9.42-2.44,13.92l169.18-20.77L239.43,147.67z"/>
	<g>
		<g>
			<g>
				<path class="st24" d="M256.17,242.54c0.64-1.18,1.31-2.35,1.97-3.52c-15.06-3.69-7.44-11.49-7.44-11.49
					c-26.78-6.71-54.26-29.28-54.26-29.28c-2.73,5.95-8.51,3.31-12.16,0.8c-0.34,0.77-0.71,1.53-1.09,2.27
					c1.14,0.88,1.71,2.18,0.9,3.35c-0.66,0.94-1.8,0.75-2.89,0.23c-0.33,0.56-0.67,1.12-1.02,1.67c2.28,0.77,2.94,1.8,1.6,3.7
					c-0.66,0.94-2.24,0.28-3.59-0.53c-0.32,0.51-0.64,1.02-0.96,1.54c1.95,0.75,3.75,2.37,2.47,4c-1.25,1.59-3.19,0.58-4.53-0.48
					c-0.48,0.86-0.96,1.73-1.42,2.6c1.85,0.37,4.02,1.32,2.76,3.83c-1.16,2.3-3.15,0.99-4.51-0.36c-0.4,0.83-0.81,1.65-1.2,2.48
					c1.26,0.86,2.13,2.45,1.18,3.72c-0.72,0.96-1.95,0.74-3.07,0.25c-0.42,0.88-0.84,1.76-1.27,2.63c13.19,5.75,3.18,9.87,3.18,9.87
					c28.44,10.3,55.13,34.43,55.13,34.43c2.26-8.75,9.05-4.58,12.58-1.67c0.62-1.11,1.27-2.2,1.96-3.29
					c-0.64-0.58-0.97-1.5-0.36-2.98c0.78-1.89,1.95-1.73,2.98-1.04c0.42-0.63,0.84-1.26,1.26-1.89c-1.24-0.65-2.1-1.68-1.07-3.07
					c1.06-1.41,2.37-1.23,3.48-0.65c0.45-0.72,0.88-1.44,1.3-2.17c-1.07-0.67-1.79-1.8-1.11-3.02c0.64-1.15,1.92-0.96,3.05-0.47
					c0.46-0.84,0.93-1.67,1.38-2.51c-1.52-0.8-2.91-2.28-2.02-3.61c0.83-1.24,2.5-0.61,3.84,0.2c0.45-0.85,0.91-1.7,1.37-2.56
					c-1.23-0.67-2.44-1.76-2.14-2.94C252.74,241.4,254.63,241.9,256.17,242.54z"/>
			</g>
			<g>
				<path class="st25" d="M220.82,265.83l-0.46-1.08c-0.27-0.63-2.95-3.3-21.89-14.37c-8.11-4.74-15.45-8.82-15.52-8.86l-0.49-0.27
					l0.17-0.52c1.59-4.81-1.53-7.83-4.41-9.5c-1.07-0.62-1.9-0.92-1.91-0.92l-0.86-0.31l0.53-0.7c2-2.66,11.11-21.6,11.2-21.79
					l0.33-0.69l0.63,0.46c6.18,4.52,11.43-1.39,11.48-1.45l0.45-0.52l0.51,0.49c1.74,1.68,6.2,4.55,13.29,8.53
					c12.26,6.9,28.37,14.86,28.53,14.94l0.61,0.3l-0.27,0.59c-3.22,6.96,4.74,13.83,4.82,13.9l0.54,0.46l-0.48,0.49
					c-1.11,1.15-9.92,14.09-13.18,18.9l-0.37,0.55l-0.58-0.41c-7.18-5-11.8,0.66-11.98,0.89L220.82,265.83z M199.09,249.27
					c16.28,9.51,20.66,12.86,21.94,14.22c1.58-1.51,6.22-4.97,12.64-0.88c1.88-2.78,10.23-15.11,12.5-18.03
					c-1.78-1.69-7.52-7.79-4.95-14.42c-3.02-1.51-17.02-8.52-27.98-14.68c-6.61-3.72-10.99-6.5-13.07-8.3
					c-1.5,1.42-6.42,5.25-12.13,1.59c-1.57,3.24-8.16,16.81-10.57,20.65c2.21,1.02,8.4,4.5,6.54,11.25
					C185.77,241.65,192.15,245.22,199.09,249.27z"/>
			</g>
			<g>
				<path class="st25" d="M198.55,219.2c0.89,0.51,1.75,0.43,2.58-0.25l1.02,1.21c-0.65,0.51-1.33,0.77-2.04,0.78
					c-0.71,0.02-1.44-0.19-2.19-0.62c-1.13-0.65-1.83-1.46-2.1-2.44c-0.27-0.98-0.1-2.03,0.52-3.16c0.62-1.13,1.4-1.84,2.33-2.11
					c0.93-0.27,1.97-0.08,3.1,0.57c0.83,0.47,1.42,1.02,1.76,1.65c0.34,0.63,0.44,1.31,0.3,2.07l-1.5-0.4
					c0.08-0.41,0.02-0.81-0.19-1.2c-0.21-0.39-0.53-0.71-0.97-0.96c-0.67-0.38-1.29-0.47-1.86-0.26c-0.57,0.21-1.07,0.7-1.5,1.49
					c-0.44,0.79-0.59,1.5-0.47,2.12C197.49,218.32,197.88,218.82,198.55,219.2z"/>
				<path class="st25" d="M202.08,222.6l3.84-6.91l1.49,0.85l-3.85,6.91L202.08,222.6z"/>
				<path class="st25" d="M209.25,226.72l-0.12-7.09c-0.23,0.55-0.43,0.99-0.61,1.3l-2.27,4.07l-1.32-0.76l3.86-6.91l1.7,0.97
					l0.13,7.18c0.22-0.53,0.44-0.99,0.67-1.4l2.27-4.03l1.33,0.76l-3.9,6.91L209.25,226.72z"/>
				<path class="st25" d="M212.38,228.52l3.91-6.91l5.66,3.23l-0.64,1.12l-4.15-2.37l-0.99,1.74l3.83,2.19l-0.64,1.12l-3.82-2.19
					l-1.03,1.82l4.34,2.49l-0.64,1.11L212.38,228.52z"/>
				<path class="st25" d="M225.28,235.94l2.42-4.18c0.05-0.1,0.11-0.19,0.17-0.28c0.06-0.09,0.31-0.49,0.76-1.2
					c-0.76,0.74-1.29,1.25-1.61,1.54l-3.52,3.1l-1.07-0.62l0.92-4.59l0.51-2.16c-0.4,0.78-0.66,1.3-0.81,1.55l-2.4,4.18l-1.33-0.77
					l3.96-6.92l2.03,1.16l-0.94,4.62l-0.1,0.44l-0.29,1.07l0.96-0.92l3.68-3.31l2.03,1.16l-4.01,6.92L225.28,235.94z"/>
				<path class="st25" d="M233.15,240.47l0.39-2.13l-2.77-1.59l-1.67,1.39l-1.51-0.87l6.68-5.4l1.8,1.03l-1.41,8.44L233.15,240.47z
					 M234.53,233.45l-0.09,0.09c-0.1,0.1-0.22,0.21-0.36,0.33c-0.14,0.12-0.92,0.78-2.34,1.98l2.09,1.2l0.44-2.4l0.17-0.8
					L234.53,233.45z"/>
			</g>
			<g>
				<path class="st25" d="M230.39,258.14c3.67-6.71,9.87-14.57,9.94-14.65l1.11,0.83c-0.06,0.08-6.21,7.85-9.84,14.47L230.39,258.14
					z"/>
			</g>
			<g>
				<path class="st25" d="M182.42,228.72l-1.06-0.78c3.64-5.19,7.8-14.54,7.84-14.63l1.19,0.57
					C190.36,213.98,186.14,223.43,182.42,228.72z"/>
			</g>
			<g>
				<g>
					<polygon class="st25" points="192.05,225.69 189.45,227.49 186.82,225.98 187.29,229.31 184.75,231.28 188.38,231.49 
						190.55,234.68 191.03,231.24 194.33,230.86 191.6,228.73 					"/>
				</g>
				<g>
					<polygon class="st25" points="200.73,230.67 198.49,232.69 195.35,231.32 196.3,234.51 193.73,236.47 197.4,236.7 
						199.22,239.98 200.07,236.46 203.41,236.09 200.66,233.94 					"/>
				</g>
				<g>
					<polygon class="st25" points="209.87,235.92 207.61,237.94 204.42,236.55 205.39,239.75 202.78,241.71 206.49,241.96 
						208.32,245.26 209.19,241.72 212.48,241.07 209.79,239.2 					"/>
				</g>
				<g>
					<polygon class="st25" points="219.58,241.49 216.81,243.24 213.59,241.46 214.56,245.04 212.11,247.16 215.66,247.26 
						217.87,250.49 218.4,247.04 221.82,246.69 219.01,244.51 					"/>
				</g>
				<g>
					<polygon class="st25" points="228.64,246.69 226.09,248.58 222.83,247.15 223.81,250.38 221.13,252.34 224.92,252.61 
						227.01,256.08 227.69,252.4 231.28,251.83 228.18,250.23 					"/>
				</g>
			</g>
			<g>
				<path class="st25" d="M234.58,247.63c-14.34-9.32-43.88-25.75-44.17-25.92l0.59-1.14c0.29,0.16,29.91,16.62,44.3,25.97
					L234.58,247.63z"/>
			</g>
			<linearGradient id="SVGID_2_" gradientUnits="userSpaceOnUse" x1="232.3503" y1="247.1384" x2="258.1382" y2="247.1384">
				<stop  offset="0.0749" style="stop-color:#A9793C"/>
				<stop  offset="1" style="stop-color:#854F00"/>
			</linearGradient>
			<path class="st26" d="M232.35,246.75c0.1,7.38,3.47,19.48,6.54,25.18c0.51-0.88,1.02-1.77,1.57-2.63
				c-0.64-0.58-0.97-1.5-0.36-2.98c0.78-1.89,1.95-1.73,2.98-1.04c0.42-0.63,0.84-1.26,1.26-1.89c-1.24-0.65-2.1-1.68-1.07-3.07
				c1.06-1.41,2.37-1.23,3.48-0.65c0.45-0.72,0.88-1.44,1.3-2.17c-1.07-0.67-1.79-1.8-1.11-3.02c0.64-1.15,1.92-0.96,3.05-0.47
				c0.46-0.84,0.93-1.67,1.38-2.51c-1.52-0.8-2.91-2.28-2.02-3.61c0.83-1.24,2.5-0.61,3.84,0.2c0.45-0.85,0.91-1.7,1.37-2.56
				c-1.23-0.67-2.44-1.76-2.14-2.94c0.31-1.19,2.2-0.68,3.74-0.05c0.64-1.18,1.31-2.35,1.97-3.52c-15.06-3.69-7.44-11.49-7.44-11.49
				c-5.01-1.26-10.05-3.07-14.92-5.18C235.03,225.55,232.25,239.37,232.35,246.75z"/>
		</g>
		<path class="st27" d="M204.98,241.41c0.04-9.67,7.18-19.62,16.24-26.4c-11.9-6.78-21.12-13.86-23.9-16.05
			c-1.54,2.61-3.74,3.24-6,2.9c-2.16-0.03-4.49-1.14-6.38-2.36c-0.32,0.65-0.64,1.29-0.99,1.93c1.16,0.9,1.72,2.24,0.84,3.43
			c-0.65,0.89-1.7,0.8-2.73,0.38c-0.1-0.03-0.21-0.06-0.31-0.1c-0.35,0.55-0.7,1.1-1.06,1.64c0.27,0.11,0.52,0.23,0.73,0.35
			c1.73,0.76,2.09,1.78,0.81,3.52c-0.72,0.97-2.36,0.31-3.76-0.52c-0.29,0.44-0.58,0.88-0.87,1.32c1.09,0.49,2.07,1.23,2.41,2.09
			c0.48,0.7,0.56,1.5-0.11,2.32c-1.37,1.67-3.38,0.64-4.78-0.45c-0.4,0.67-0.79,1.35-1.18,2.04c1.62,0.35,3.37,1.18,2.84,3.1
			c0.02,0.44-0.11,0.96-0.43,1.57c-1.3,2.43-3.38,1.09-4.78-0.3c-0.05,0.09-0.1,0.19-0.15,0.28c-0.21,0.42-0.41,0.85-0.62,1.27
			c1.26,0.86,2.13,2.45,1.18,3.72c-0.06,0.08-0.12,0.13-0.19,0.2c-0.05,0.36-0.19,0.71-0.45,1.05c-0.76,0.97-1.97,0.84-3.1,0.4
			c-0.2,0.41-0.39,0.82-0.59,1.23c7.65,3.34,7.49,6.12,6.01,7.87c-0.13,0.98-0.79,1.83-1.55,2.48c16,6.04,31.31,16.27,41.49,23.93
			C209.19,257.18,204.94,250.06,204.98,241.41z"/>
	</g>
	<g>
		<path class="st28" d="M292.95,258.49c-7.19,0.38-14.2,0.06-21.37-0.39c-6.44-0.41-13.45,0.12-19.59-1.72l0.9,14.18
			c0,0,15.55,5.96,26.23,5.33c10.68-0.63,20.19-3.05,20.19-3.05l3.26-15.78C299.46,257.8,296.32,258.32,292.95,258.49z"/>
		<path class="st29" d="M259.09,267.28c6.58,1.54,13.3,2.28,20.06,2.39c7.14,0.11,14.54-2.17,21.48-3.29l1.92-9.32
			c-3.09,0.73-6.23,1.25-9.6,1.43c-7.19,0.38-14.2,0.06-21.37-0.39c-6.44-0.41-13.45,0.12-19.59-1.72l0.57,8.95
			C254.72,266.06,256.89,266.77,259.09,267.28z"/>
		<path class="st30" d="M232.28,157.35c0,0,17.16,73.48,14.49,96.57c0,0,6.46,7.99,30.1,9.84c23.64,1.85,29.4-4.95,29.4-4.95
			s3.54-52.71,22.53-94.76C328.8,164.06,290.03,172.43,232.28,157.35z"/>
		<path class="st31" d="M303.62,183.02c0,0,2.79,16.72-25.18,14.96c-27.97-1.76-34.97,25.14-25.51,41.51
			c9.47,16.36,34.51,23.41,47.28,7.03c0,0-11.57,10.27-24.54,0.62c-12.97-9.65-4.75-23.19,8.96-30.61
			C298.33,209.11,312.02,205.15,303.62,183.02z"/>
		<path class="st32" d="M256.81,162.63c-7.71-1.31-15.9-3.02-24.53-5.27c0,0,17.16,73.48,14.49,96.57c0,0,4.76,5.87,21.02,8.71
			C265.16,229.24,256,196.26,256.81,162.63z"/>
		<path class="st30" d="M293.22,204.59c-0.11,2.03-1.87,3.58-3.92,3.46c-2.05-0.12-3.63-1.85-3.51-3.88
			c0.11-2.03,1.87-3.58,3.92-3.46C291.76,200.82,293.33,202.56,293.22,204.59z"/>
		<path class="st30" d="M290.19,173.25c-1.7,15.55-9.32,87.83-9.84,90.73c4.64,0.21,8.49,0.07,11.69-0.28
			c0.11-0.86,17.84-90.05,19.21-94.68C304.87,171.52,297.36,173.16,290.19,173.25z"/>
		<path class="st30" d="M232.28,157.35c0,0,2.1,9.01,4.72,21.71c4.84,4.76,20.69,10.15,38.64,10.48
			c14.72,0.27,36.24-3.69,47.67-11.95c1.67-4.45,3.47-8.97,5.48-13.54C328.8,164.06,290.03,172.43,232.28,157.35z"/>
		<path class="st30" d="M278.72,210.14c-0.18,3.18-3.15,5.6-6.63,5.4c-3.48-0.2-6.16-2.93-5.98-6.11c0.18-3.18,3.15-5.6,6.63-5.4
			C276.22,204.22,278.89,206.96,278.72,210.14z"/>
		<path class="st30" d="M265.04,228.43c-0.14,2.45-2.38,4.32-5.01,4.18c-2.63-0.15-4.65-2.26-4.51-4.71
			c0.14-2.45,2.38-4.32,5.01-4.18C263.16,223.87,265.18,225.98,265.04,228.43z"/>
		<path class="st30" d="M267.18,242.9c-0.07,1.31-1.32,2.31-2.79,2.23c-1.47-0.08-2.59-1.22-2.52-2.53
			c0.07-1.31,1.32-2.31,2.79-2.23C266.13,240.46,267.26,241.59,267.18,242.9z"/>
		<path class="st30" d="M273.58,250.44c-0.05,0.83-0.79,1.47-1.65,1.42c-0.86-0.05-1.53-0.76-1.48-1.6
			c0.05-0.83,0.79-1.47,1.65-1.42C272.97,248.89,273.63,249.61,273.58,250.44z"/>
		<path class="st30" d="M301.98,199.26c-0.05,0.88-0.76,1.55-1.59,1.5c-0.83-0.05-1.46-0.79-1.41-1.67c0.05-0.88,0.76-1.55,1.59-1.5
			C301.4,197.63,302.03,198.38,301.98,199.26z"/>
		<path class="st33" d="M304.5,248.19c-14.81-4.16-27.57-13.38-33.49-28.95c-6.65-17.49-5.41-36.64-4.14-55.13
			c-9.04-1.16-18.92-2.91-29.51-5.48c0.33,0.76,0.66,1.52,0.96,2.29c1.85,4.78,5.88,35.7,8.15,45.9c2.19,9.84,3.96,46.35,4.05,47.14
			c4.1,2.37,11.78,5.42,25.09,6.46c22.89,1.8,28.47-4.79,28.47-4.79S304.12,252.96,304.5,248.19z"/>
		<path class="st34" d="M224.21,158.54c0,0,22.14,20.49,58.37,19.25c35.88-1.22,50.58-10.39,55.54-14.48c0,0-8.93-6.23-13.84-14.43
			l-85.59-1.29C238.69,147.59,229.83,156.53,224.21,158.54z"/>
		<path class="st34" d="M319.05,160.46c-1.75-2.55-3.46-5.11-5.22-7.65c-0.51,0.25-1.04,0.46-1.59,0.67
			c1.75,4.44,3.83,8.79,5.63,13.19c0.76,1.85,1.49,3.7,2.22,5.56c2.51-0.78,4.71-1.59,6.67-2.41
			C324,166.92,321.4,163.89,319.05,160.46z"/>
		<path class="st34" d="M303.74,155.44c-6.18,0.96-12.26,1.99-18.38,2.74c0.1,6.49,0.39,12.98,0.81,19.46
			c10.2-0.52,18.58-1.69,25.43-3.19c-1.13-2.83-2.26-5.65-3.49-8.43C306.55,162.5,305.04,159,303.74,155.44z"/>
		<path class="st34" d="M246.62,147.71c-1.69,1.93-3.48,3.74-5.44,5.3c-3.91,3.11-8.45,5.76-11.82,9.49
			c7.15,4.94,21.5,12.97,41.28,14.9c-1.11-3.67-1.85-7.43-1.88-11.27c-0.03-6.03,0.38-12.06,0.8-18.08L246.62,147.71z"/>
		<path class="st35" d="M324.29,148.88c0,0-12.45-6.8-42.07-6.55c-29.63,0.24-37.41,1.08-43.52,5.26c0,0,8.66,12.56,45.15,12.67
			C314.54,160.34,323.31,151.65,324.29,148.88z"/>
		<path class="st36" d="M277.76,160.11c0.77-1.18,1.54-2.36,2.29-3.55c2.84-4.46,5.79-8.86,8.7-13.28c0.18-0.28,0.37-0.57,0.55-0.87
			c-0.45-0.01-0.9-0.03-1.36-0.04c-4.6,3.57-8.95,7.64-13.59,10.93c-2.77,1.96-5.59,3.84-8.43,5.7
			C269.43,159.53,273.37,159.92,277.76,160.11z"/>
		<path class="st36" d="M311.09,144.79c-1.95,4.76-4.42,9.36-6.91,13.89c14.51-2.61,19.39-7.78,20.1-9.8
			C324.29,148.88,320.17,146.65,311.09,144.79z"/>
		<path class="st36" d="M302.22,143.37c-1.04-0.12-2.11-0.24-3.23-0.35c-2.36,2.94-4.22,6.97-6.09,9.8
			c-1.62,2.45-3.21,4.92-4.81,7.38c1.93-0.05,3.75-0.14,5.49-0.25C296.44,154.49,299.7,149.05,302.22,143.37z"/>
		<path class="st36" d="M251.81,149.43c1.19-2.05,2.66-4.17,3.99-6.34c-9.18,0.7-13.45,2-17.11,4.5c0,0,2.49,3.55,10.28,6.89
			C249.9,152.79,250.84,151.1,251.81,149.43z"/>
		<path class="st37" d="M315.93,147.73c0,0-34.09-14.2-68.68-1c0,0,9.94,7.66,36.73,8.53C305.92,155.97,315.93,147.73,315.93,147.73
			z"/>
		<path class="st34" d="M251.52,137.29c0,0,2.85,2.74,2.72,9.83c0,0,17.81,4.99,31.03,4.75c12.2-0.22,24.1-3.83,24.1-3.83
			s-0.38-3.7,3.47-11.53L251.52,137.29z"/>
		<path class="st34" d="M277.92,136.96l-19.09,0.24c-0.29,2.18-0.54,4.38-1.05,6.45c-0.34,1.38-0.71,2.75-1.08,4.12
			c3.94,0.99,12.07,2.86,20.18,3.69C276.99,146.68,277.04,141.66,277.92,136.96z"/>
		<path class="st34" d="M296.62,136.72l-6.36,0.08c-1.05,4.97-1.92,9.96-2.56,14.98c4.87-0.26,9.55-0.99,13.32-1.73
			C299.41,145.65,297.84,141.24,296.62,136.72z"/>
		<path class="st35" d="M312.84,136.51c0,0-17.5-5.9-32.06-5.81c-14.56,0.09-22.89,2.62-29.26,6.59c0,0,7.58,6.74,29.89,7.99
			c22.31,1.26,31.23-8.36,31.23-8.36L312.84,136.51z"/>
		<path class="st36" d="M264.68,132.19c-5.48,1.15-9.63,2.9-13.17,5.11c0,0,2.2,1.95,7.71,3.95
			C260.83,138.1,262.63,135.07,264.68,132.19z"/>
		<path class="st36" d="M277.17,135.29c0.72-1.52,1.36-3.08,2.13-4.56c-0.93,0.02-1.85,0.04-2.73,0.08c-0.3,0.46-0.57,0.89-0.8,1.17
			c-1.37,1.72-2.73,3.43-3.97,5.25c-1.41,2.08-2.75,4.2-3.99,6.38c1.54,0.31,3.22,0.6,5.02,0.85
			C274.3,141.41,275.72,138.34,277.17,135.29z"/>
		<path class="st36" d="M302.39,133.61c-0.58,1.21-1.19,2.42-1.77,3.63c-1.08,2.27-2.11,4.56-3.11,6.86
			c10.58-2.36,15.13-7.17,15.13-7.17l0.19-0.41C312.84,136.51,308.52,135.06,302.39,133.61z"/>
		<path class="st37" d="M265.15,137.52c0,0,10.93-2.73,20.17-1.94c9.24,0.79,13.72,2.3,13.72,2.3s-6.43,3.91-18.89,3.41
			C267.7,140.8,265.15,137.52,265.15,137.52z"/>
		<path class="st38" d="M226.32,105.71c0,0-0.58,7.41,5.51,7.95c0,0,1.77-3.99-0.92-6.28C228.22,105.09,227.93,105.34,226.32,105.71
			z"/>
		<path class="st34" d="M285.65,137.84c0,0,2.21,2.03,7.75,0.44l-13.95-62.6c0,0,3.52-0.69,0.9-3.91c0,0,1.23-3.68-2.48-1.98
			c0,0-0.4-3.84-3.31-1.76c0,0,0.21-2.58-3.81,0.95c-4.02,3.53-44.44,36.73-44.44,36.73s6.39,2,5.51,7.95
			c0,0,40.44-36.3,40.94-35.54C273.27,78.87,283.47,125.71,285.65,137.84z"/>
		<path class="st34" d="M276.79,72.08c-0.34-1.06-1.37-3.51-3.41-2.33c-7.32,4.25-33.32,26.85-45.21,36.45
			c0.39,0.24,0.84,0.42,1.13,0.73c0.62-0.98,37.1-31.56,44.29-35.7c0.85-0.49,1.53-0.03,1.78,0.58
			c3.04,7.29,11.82,49.72,14.83,63.75c0.46,0.02,0.54,0.06,1,0.06C288.82,123.94,278.59,77.72,276.79,72.08z"/>
	</g>
	<g>
		<linearGradient id="SVGID_3_" gradientUnits="userSpaceOnUse" x1="148.5526" y1="242.635" x2="135.0786" y2="267.0379">
			<stop  offset="0" style="stop-color:#F5F6F6"/>
			<stop  offset="0.356" style="stop-color:#E9EBE5"/>
			<stop  offset="0.3768" style="stop-color:#EDECE5"/>
			<stop  offset="0.4652" style="stop-color:#F7EEE5"/>
			<stop  offset="0.5732" style="stop-color:#FAEFE5"/>
			<stop  offset="0.7938" style="stop-color:#EFF1EE"/>
		</linearGradient>
		<path class="st39" d="M92.07,254.02c0,0,78.56-5.5,82.04-5.16c4.2,0.41,19.76,23.87,3.29,22.55c-9.69-0.78-4.79-16.38-4.79-16.38
			l-36.29,6.09l-11.99,16.77l-29.63,1.85L92.07,254.02z"/>
		<g>
			<path class="st40" d="M95.2,279.16l-2.58-25.17c-0.33,0.02-0.56,0.04-0.56,0.04l2.63,25.72l29.63-1.85l0.42-0.58L95.2,279.16z"/>
			<path class="st40" d="M177.9,270.82c-9.69-0.78-4.27-16.8-4.27-16.8l-37.5,6.14l-3.07,4.13l-1.24,3.28l4.59-6.47l36.2-6.07
				c0,0-4.91,15.6,4.79,16.38c3.47,0.28,5.51-0.56,6.54-2.03C182.8,270.48,180.88,271.06,177.9,270.82z"/>
		</g>
		<linearGradient id="SVGID_4_" gradientUnits="userSpaceOnUse" x1="237.6136" y1="262.3484" x2="213.0612" y2="317.8409">
			<stop  offset="0" style="stop-color:#F5F6F6"/>
			<stop  offset="0.356" style="stop-color:#E9EBE5"/>
			<stop  offset="0.3768" style="stop-color:#EDECE5"/>
			<stop  offset="0.4652" style="stop-color:#F7EEE5"/>
			<stop  offset="0.5732" style="stop-color:#FAEFE5"/>
			<stop  offset="0.7938" style="stop-color:#EFF1EE"/>
		</linearGradient>
		<path class="st41" d="M200.72,275.34c0,0,46.77-16.69,51.38-14.55c4.61,2.14,14.16,25.52,2.47,25.35
			c-11.69-0.16-4.16-17.24-4.16-17.24l-27.15,13.67l-11.06,23.13l-12.95,10.13C199.24,315.84,194.14,292.05,200.72,275.34z"/>
		<g>
			<path class="st42" d="M200.37,276.84c0,0,46.77-16.69,51.38-14.55c3.24,1.51,8.93,13.53,7.94,20.46
				c2.23-6.52-4.09-20.34-7.59-21.96c-4.61-2.14-51.38,14.55-51.38,14.55c-0.84,2.14-1.49,4.39-1.99,6.69
				C199.18,280.25,199.72,278.51,200.37,276.84z"/>
		</g>
		<g>
			<path class="st42" d="M174.11,250.37c2.7,0.26,10.08,10.05,10.64,16.66c0.65-6.5-7.73-17.89-10.64-18.18
				c-3.48-0.34-82.04,5.16-82.04,5.16l0.15,1.5C95.44,255.3,170.71,250.04,174.11,250.37z"/>
		</g>
		<path class="st43" d="M92.07,254.02v30.46l32.4,9.51c1.55-4.25,4.05-7.53,8.56-9.06c3.54-1.2,7.16,0.27,9.77,2.01
			c4.61,3.06,5.59,9.08,6.34,14.24l50.09,14.66l1.48-40.5L92.07,254.02z"/>
		<path class="st44" d="M144.03,285.46c-2.46-2.02-7.97-3.76-11.79-2.47c-4.8,1.63-8.16,5.89-9.83,10.38l2.07,0.61
			c1.55-4.25,4.05-7.53,8.56-9.06c3.54-1.2,7.16,0.27,9.77,2.01c4.61,3.06,5.59,9.08,6.34,14.24l0.78,0.23
			C149.94,296.11,148.57,289.21,144.03,285.46z"/>
		<path class="st43" d="M184.4,303.23c-12.7-1.85-39.28-15.21-41.06-15.86c4.13,3.16,5.1,8.86,5.82,13.81l50.09,14.66l0.41-11.29
			C194.56,304.34,189.47,303.97,184.4,303.23z"/>
		<path class="st43" d="M96.31,275.97c-1.51-0.92-2.91-1.97-4.24-3.07v11.58l32.4,9.51c1.52-4.16,3.92-7.48,8.29-8.95
			C120.95,284.12,106.67,282.32,96.31,275.97z"/>
		<polygon class="st42" points="200.31,276.93 200.67,276.93 200.72,275.34 92.07,254.02 92.07,255.52 200.32,276.76 		"/>
		<path class="st45" d="M187.36,305.76L157,297.73c-2.21-0.59-4.02-3.06-4.04-5.54l-0.16-16.94c-0.02-2.59,1.79-4.27,4.07-3.73
			l31.28,7.36c2.45,0.58,4.37,3.23,4.28,5.91l-0.6,17.5C191.75,304.84,189.74,306.39,187.36,305.76z"/>
		<path class="st46" d="M168.92,289.23c-5.93-1.54-12.91-1.47-15.38,5.35c0.7,1.51,1.99,2.75,3.46,3.15l30.36,8.04
			c0.34,0.09,0.67,0.12,1,0.13C185.02,298.3,176.52,291.21,168.92,289.23z"/>
		<path class="st47" d="M190.26,302.28l0.56-16.27c0.08-2.49-1.7-4.96-3.98-5.49l-29.09-6.85c-0.77-0.18-1.49-0.08-2.08,0.23
			C170.67,286.15,190.26,302.28,190.26,302.28z"/>
		<path class="st48" d="M118.24,286.7l-20.05-5.19c-1.47-0.38-2.65-2.28-2.63-4.27l0.12-13.78c0.02-2.14,1.29-3.61,2.85-3.24
			l21.18,4.93c1.64,0.38,2.85,2.48,2.68,4.66l-1.05,13.99C121.18,285.82,119.8,287.1,118.24,286.7z"/>
		<path class="st46" d="M110.12,276.78c-8.34-5.22-14.56,0.46-14.56,0.46c-0.02,1.98,1.16,3.88,2.63,4.27l20.05,5.19
			c0.32,0.08,0.63,0.08,0.93,0.03C117.5,283.12,113.82,279.09,110.12,276.78z"/>
		<path class="st49" d="M120.09,282.69l0.92-12.16c0.16-2.06-0.98-4.04-2.53-4.4l-20-4.66c-0.32-0.07-0.62-0.05-0.9,0.02
			C97.57,261.8,120.09,282.69,120.09,282.69z"/>
	</g>
</g>
<g>
	<g>
		<g>
			<g>
				<path class="st50" d="M186.16,304.3c-1.07-0.89-2.12-1.78-3.17-2.67c-10.46,6.13-16.1-1.74-16.1-1.74
					c-21.56,11.4-70.25,16.38-70.25,16.38c6.21,5.39-2.31,7.99-9.16,9.18c0.84,0.73,1.63,1.47,2.4,2.22
					c2.29-0.32,4.7,0.03,5.72,1.36c0.83,1.08-0.43,1.85-2.15,2.38c0.54,0.61,1.08,1.22,1.61,1.84c3.11-1.32,5.19-1.2,6.87,1.01
					c0.84,1.1-1.46,1.97-3.84,2.55c0.49,0.58,0.99,1.16,1.49,1.74c2.79-1.13,6.7-1.59,8.08,0.46c1.35,2.01-1.77,2.99-4.51,3.47
					c0.9,0.95,1.82,1.9,2.77,2.84c2.11-1.36,5.33-2.59,8.09,0.04c2.55,2.43-1.04,3.34-4.23,3.69c0.93,0.88,1.87,1.77,2.83,2.65
					c2.35-0.59,5.5-0.35,6.68,1.3c0.9,1.25-0.42,2.24-2.08,2.95c1.03,0.95,2.05,1.91,3.07,2.87c18.51-8.23,17.65,3.29,17.65,3.29
					c32.26-18,74.53-24.23,74.53-24.23c-9.89-5.99-2.54-8.23,2.02-8.99c-1.11-0.93-2.18-1.87-3.23-2.83
					c-0.88,0.11-2.06-0.15-3.59-1.25c-1.95-1.4-1.37-2.03-0.23-2.3c-0.59-0.56-1.18-1.11-1.77-1.67c-1.16,0.41-2.66,0.41-3.91-0.88
					c-1.27-1.3-0.6-1.98,0.45-2.33c-0.67-0.6-1.35-1.2-2.03-1.79c-1.14,0.28-2.69,0.14-3.85-0.84c-1.09-0.92-0.41-1.54,0.55-1.92
					c-0.79-0.66-1.57-1.31-2.36-1.96c-1.46,0.44-3.67,0.49-4.86-0.64c-1.1-1.05,0.24-1.65,1.66-1.97c-0.8-0.65-1.58-1.3-2.37-1.95
					c-1.22,0.32-2.92,0.44-4.14-0.29C183.54,305.54,184.85,304.8,186.16,304.3z"/>
			</g>
			<g>
				<path class="st25" d="M200.24,336.98l-1.53-0.26c-0.89-0.15-5.32,0.29-28.59,8.11c-11.04,3.71-21.34,7.4-21.45,7.44l-0.72,0.26
					l-0.64-0.46c-5.95-4.24-12.49-3.44-17.03-2c-1.71,0.54-2.77,1.08-2.78,1.08l-1.11,0.56l-0.66-0.9
					c-2.47-3.38-23.21-22.24-23.41-22.43l-0.73-0.66l1.18-0.19c11.28-1.85,6.95-8.97,6.91-9.04l-0.38-0.61l1.06-0.06
					c3.59-0.21,10.63-1.54,20.62-3.88c16.09-3.77,33.95-8.8,34.12-8.84l0.63-0.18l0.57,0.44c6.75,5.25,18.12,4.23,18.23,4.22
					l0.75-0.07l0.38,0.5c0.89,1.17,12.66,12.65,17.21,17.06l0.53,0.51l-0.69,0.16c-8.73,2.04-3.52,8.05-3.3,8.29L200.24,336.98z
					 M168.95,343.74c20.22-6.72,26.25-7.97,28.46-8.13c-1.26-1.86-3.72-6.71,3.64-8.7c-2.63-2.56-13.97-13.6-16.45-16.3
					c-2.67,0.16-12.31,0.34-18.99-4.41c-3.22,0.91-19.08,5.36-33.52,8.78c-9.29,2.2-16.13,3.54-20.11,3.92
					c0.85,1.85,2.55,7.57-7.11,9.6c3.44,3.14,18.27,16.68,22.19,21.1c3.14-1.27,12.54-4.32,21.07,1.27
					C150.65,349.99,159.54,346.87,168.95,343.74z"/>
			</g>
			<g>
				<path class="st25" d="M127.41,326.96c1.31-0.34,1.78-0.99,1.41-1.96l2.34-0.02c0.26,0.74,0.17,1.37-0.29,1.88
					c-0.45,0.52-1.23,0.92-2.33,1.21c-1.68,0.44-3.3,0.47-4.85,0.1c-1.56-0.37-2.91-1.11-4.05-2.21c-1.13-1.1-1.55-2.06-1.25-2.87
					c0.3-0.8,1.3-1.41,2.99-1.82c1.23-0.3,2.38-0.38,3.46-0.26c1.08,0.12,2.08,0.44,3.01,0.96l-1.55,0.8
					c-0.5-0.29-1.09-0.47-1.77-0.55c-0.68-0.08-1.34-0.04-1.98,0.12c-0.99,0.24-1.55,0.62-1.66,1.14c-0.12,0.52,0.22,1.16,1,1.91
					c0.79,0.77,1.67,1.29,2.61,1.56C125.45,327.21,126.42,327.22,127.41,326.96z"/>
				<path class="st25" d="M134.42,326.41l-6.82-6.53l2.12-0.51l6.8,6.5L134.42,326.41z"/>
				<path class="st25" d="M144.41,323.79l-9.46-3.85c0.59,0.46,1.04,0.83,1.34,1.12l4.01,3.8l-1.84,0.48l-6.79-6.46l2.38-0.58
					l9.54,3.87c-0.56-0.43-1.04-0.84-1.44-1.21l-3.9-3.68l1.79-0.44l6.71,6.32L144.41,323.79z"/>
				<path class="st25" d="M148.62,322.69l-6.7-6.29l7.36-1.79l1.07,0.99l-5.37,1.32l1.67,1.57l4.96-1.24l1.07,1l-4.95,1.25
					l1.76,1.65l5.6-1.45l1.08,1L148.62,322.69z"/>
				<path class="st25" d="M164.95,318.42l-3.98-3.66c-0.09-0.08-0.18-0.17-0.27-0.25c-0.09-0.08-0.45-0.44-1.09-1.08
					c0.53,0.84,0.9,1.42,1.08,1.76l2.08,3.79l-1.32,0.35l-5.29-2.99l-2.44-1.45c0.77,0.66,1.28,1.09,1.51,1.31l4.01,3.72l-1.68,0.44
					l-6.62-6.14l2.54-0.62l5.27,3l0.49,0.29l1.18,0.74l-0.66-1.08l-2.22-3.94l2.45-0.59l6.53,5.99L164.95,318.42z"/>
				<path class="st25" d="M174.21,316l-2.4-1.31l-3.22,0.83l0.91,1.72l-1.79,0.47l-3.38-6.73l2.1-0.51l9.49,5.1L174.21,316z
					 M166.38,311.61l0.06,0.1c0.07,0.11,0.15,0.24,0.23,0.38c0.09,0.14,0.51,0.93,1.29,2.38l2.43-0.62l-2.69-1.48l-0.88-0.5
					L166.38,311.61z"/>
			</g>
			<g>
				<path class="st25" d="M194.44,326.7c-6.64-5.68-13.44-13.28-13.5-13.35l1.44-0.22c0.07,0.07,6.78,7.56,13.32,13.14L194.44,326.7
					z"/>
			</g>
			<g>
				<path class="st25" d="M129.64,344.99l-1.92,0.41c-4.93-6.12-15.3-14.96-15.4-15.04l1.73-0.56
					C114.16,329.89,124.62,338.79,129.64,344.99z"/>
			</g>
			<g>
				<g>
					<polygon class="st25" points="132.02,335.53 132.79,338.6 128.78,339.77 133.91,341.38 135,344.62 137.78,341.81 
						143.73,341.97 139.18,339.58 140.79,336.81 136.01,337.66 					"/>
				</g>
				<g>
					<polygon class="st25" points="144.55,331.96 145.95,334.75 142.09,336.31 147.1,337.43 148.25,340.54 150.8,337.86 
						156.36,338.37 152.05,335.73 153.49,333.08 148.97,333.87 					"/>
				</g>
				<g>
					<polygon class="st25" points="156.9,328.44 158.32,331.13 154.69,332.61 159.51,333.71 160.7,336.7 163.04,334.15 
						168.35,334.67 164.16,332.1 165.01,329.47 161.16,330.3 					"/>
				</g>
				<g>
					<polygon class="st25" points="169.12,324.96 169.98,327.72 166.09,328.92 171.2,330.21 172.73,333.04 174.57,330.65 
						179.71,330.89 175.58,328.69 176.72,326.26 172.66,326.94 					"/>
				</g>
				<g>
					<polygon class="st25" points="179.78,321.93 180.99,324.5 177.76,325.84 182.23,326.9 183.49,329.68 185.46,327.35 
						190.59,327.8 186.36,325.46 187.15,322.92 183.91,324.04 					"/>
				</g>
			</g>
			<g>
				<path class="st25" d="M183.46,318.79c-18.04,4.06-57.78,15.52-58.22,15.65l-1.19-1.13c0.44-0.13,40.3-11.49,58.41-15.51
					L183.46,318.79z"/>
			</g>
			<path class="st51" d="M181.45,319.68c8.94,3.69,24.65,7.71,32.36,8.64c-0.88-0.75-1.75-1.5-2.58-2.26
				c-0.88,0.11-2.06-0.15-3.59-1.25c-1.95-1.4-1.37-2.03-0.23-2.3c-0.59-0.56-1.18-1.11-1.77-1.67c-1.16,0.41-2.66,0.41-3.91-0.88
				c-1.27-1.3-0.6-1.98,0.45-2.33c-0.67-0.6-1.35-1.2-2.03-1.79c-1.14,0.28-2.69,0.14-3.85-0.84c-1.09-0.92-0.41-1.54,0.55-1.92
				c-0.79-0.66-1.57-1.31-2.36-1.96c-1.46,0.44-3.67,0.49-4.86-0.64c-1.1-1.05,0.24-1.65,1.66-1.97c-0.8-0.65-1.58-1.3-2.37-1.95
				c-1.22,0.32-2.92,0.44-4.14-0.29c-1.23-0.73,0.08-1.48,1.39-1.97c-1.07-0.89-2.12-1.78-3.17-2.67
				c-10.46,6.13-16.1-1.74-16.1-1.74c-3.75,1.98-8.29,3.77-13.27,5.37C157.09,307.31,172.47,315.97,181.45,319.68z"/>
		</g>
		<path class="st52" d="M165.95,340.73c-16.01-3.01-29.89-10.8-42.11-21.37c-2.12-1.84-3.97-3.88-5.56-6.08
			c-9.18,1.52-16.71,2.43-19.96,2.8c2.43,2.59,1.56,4.49-0.77,5.89c-1.83,1.55-5.42,2.58-8.86,3.25c0.68,0.64,1.34,1.27,1.97,1.92
			c2.33-0.33,4.77,0.06,5.78,1.45c0.76,1.04-0.26,1.8-1.78,2.34c-0.13,0.06-0.27,0.12-0.42,0.18c0.52,0.61,1.03,1.23,1.53,1.85
			c0.4-0.15,0.78-0.27,1.15-0.36c2.59-0.89,4.4-0.54,5.9,1.52c0.85,1.17-1.51,2.08-3.95,2.69c0.41,0.51,0.82,1.02,1.24,1.53
			c1.66-0.59,3.6-0.93,5.16-0.67c1.44,0.04,2.7,0.48,3.37,1.52c1.38,2.16-1.82,3.2-4.64,3.7c0.68,0.76,1.39,1.53,2.11,2.29
			c1.89-1.17,4.58-2.13,7.03-0.49c0.68,0.26,1.36,0.69,2.01,1.34c2.64,2.63-1.06,3.61-4.35,3.98c0.1,0.1,0.21,0.21,0.31,0.31
			c0.48,0.45,0.96,0.91,1.45,1.36c2.35-0.59,5.5-0.35,6.68,1.3c0.07,0.1,0.11,0.2,0.15,0.29c0.51,0.27,0.94,0.62,1.25,1.07
			c0.89,1.3-0.27,2.34-1.86,3.1c0.48,0.45,0.96,0.89,1.44,1.34c10.98-4.88,15.06-3.01,16.65-0.58c1.4,0.73,2.21,1.87,2.67,2.98
			c16.49-8.91,35.17-14.8,49.28-18.39C181.16,342.65,173.48,342.14,165.95,340.73z"/>
	</g>
</g>
<g>
	<g>
		<g>
			<path class="st53" d="M327.77,277.98c0,0-45.48,2.97-45.9,21.96l1.47,25.37c0,0,8.28-28.81,45.94-25.74L327.77,277.98z"/>
			
				<linearGradient id="SVGID_5_" gradientUnits="userSpaceOnUse" x1="295.9" y1="274.7122" x2="286.4774" y2="293.221" gradientTransform="matrix(0.9936 -0.1132 0.1132 0.9936 -22.1073 45.2281)">
				<stop  offset="0.0428" style="stop-color:#B3BCC3"/>
				<stop  offset="0.9733" style="stop-color:#E2E5E8"/>
			</linearGradient>
			<path class="st54" d="M292.32,289.84c0.56,5.33,1.06,10.67,1.74,15.99c3.6-3.02,7.91-5.28,12.35-6.85l-1.62-14.26
				C300.31,285.95,295.85,287.62,292.32,289.84z"/>
			
				<linearGradient id="SVGID_6_" gradientUnits="userSpaceOnUse" x1="283.5399" y1="283.3426" x2="274.4536" y2="301.1786" gradientTransform="matrix(0.9936 -0.1132 0.1132 0.9936 -22.1073 45.2281)">
				<stop  offset="0.0428" style="stop-color:#B3BCC3"/>
				<stop  offset="0.9733" style="stop-color:#E2E5E8"/>
			</linearGradient>
			<path class="st55" d="M288.83,292.55c-2.18,2.13-3.54,4.65-3.61,7.63l1.26,21.78c0,0,0.21-0.73,0.72-1.91l-0.29-5.09
				c1-2.15,2.3-4.09,3.81-5.84C289.93,303.62,289.4,298.08,288.83,292.55z"/>
			
				<linearGradient id="SVGID_7_" gradientUnits="userSpaceOnUse" x1="315.4025" y1="273.5631" x2="303.2878" y2="289.3795" gradientTransform="matrix(0.9936 -0.1132 0.1132 0.9936 -22.1073 45.2281)">
				<stop  offset="0.0428" style="stop-color:#B3BCC3"/>
				<stop  offset="0.9733" style="stop-color:#E2E5E8"/>
			</linearGradient>
			<path class="st56" d="M308.46,283.79l1.6,14.05c5.67-1.54,11.27-2.04,15.61-1.67l-1.04-14.83
				C324.63,281.32,317,281.82,308.46,283.79z"/>
		</g>
		<path class="st57" d="M281.87,299.94l1.47,25.37c0,0,0.79-2.72,2.96-6.4l0.18,3.05c0,0,0.21-0.73,0.72-1.91l-0.14-2.37
			c5.33-8.3,17.39-20.14,42.22-18.11l-1.51-21.58C327.77,277.98,282.29,280.96,281.87,299.94z"/>
		<g>
			<path class="st58" d="M395.21,242.32c0,0-18.57-12.8-42.97,4.89c-24.39,17.69-7.43,59.29,14.15,64.16s42.78-4.38,47.93-23.55
				C419.48,268.65,408.45,249.12,395.21,242.32z"/>
			<path class="st59" d="M393.5,245.58c0,0-16.74-11.53-38.72,4.41c-21.98,15.94-6.7,53.42,12.75,57.82
				c19.45,4.39,38.55-3.95,43.19-21.22C415.37,269.31,405.44,251.71,393.5,245.58z"/>
			<path class="st53" d="M391.48,249.45c0,0-14.56-10.03-33.68,3.84c-19.12,13.87-5.82,46.47,11.09,50.3
				c16.92,3.82,33.53-3.44,37.57-18.46C410.51,270.09,401.86,254.78,391.48,249.45z"/>
			<path class="st59" d="M389.52,253.19c0,0-12.45-8.58-28.8,3.28c-16.35,11.86-4.98,39.74,9.49,43.01
				c14.47,3.27,28.68-2.94,32.13-15.79C405.79,270.84,398.4,257.75,389.52,253.19z"/>
			<path class="st53" d="M387.9,256.3c0,0-10.7-7.37-24.76,2.82c-14.05,10.19-4.28,34.16,8.15,36.97
				c12.44,2.81,24.65-2.53,27.62-13.57C401.89,271.47,395.53,260.22,387.9,256.3z"/>
			<path class="st60" d="M426.44,243.08c0,0-26.22-32.96-65.96-20.44c-39.75,12.51-55.43,66.9-16.65,99.21
				c23.51,19.59,54.04,12.89,75.59-6.02C439.37,298.33,442.74,264.2,426.44,243.08z M417.38,313.83
				c-20.46,17.94-49.43,24.3-71.74,5.71c-36.8-30.67-21.92-82.29,15.8-94.17c37.72-11.88,62.61,19.4,62.61,19.4
				C439.51,264.82,436.31,297.22,417.38,313.83z"/>
			
				<linearGradient id="SVGID_8_" gradientUnits="userSpaceOnUse" x1="344.8641" y1="316.8552" x2="398.7317" y2="234.8407" gradientTransform="matrix(0.9936 -0.1132 0.1132 0.9936 -22.1073 45.2281)">
				<stop  offset="0" style="stop-color:#A4B8BF"/>
				<stop  offset="1" style="stop-color:#E2E5EC"/>
			</linearGradient>
			<path class="st61" d="M424.57,244.4c0,0-25.18-31.65-63.35-19.63c-38.17,12.02-53.23,64.25-15.99,95.28
				c22.58,18.81,51.9,12.38,72.59-5.78C436.99,297.46,440.22,264.69,424.57,244.4z M331.69,264.87c2.62-15.14,13.49-7.82,16.77-6.08
				c3.28,1.73,14.51,7.57,14.88,14.47c0,0-1.47,5.96-11.87,6.53C340.99,280.36,329.07,279.99,331.69,264.87z M367.91,301.47
				c-2.13,8.83-6.21,19.35-18.33,10.16c-12.23-9.28-2.53-15.77-0.24-17.65c2.28-1.88,10.05-8.4,16.01-5.41
				C365.36,288.58,370.05,292.64,367.91,301.47z M364.05,253.4c-5.9-9.93-11.64-21.52,4.18-23.56
				c15.67-2.03,14.28,10.54,14.31,14.22c0.03,3.67,0.23,16.27-6.16,18.78C376.38,262.83,369.92,263.28,364.05,253.4z M392.11,320.57
				c-15.7,0.46-12.73-11.46-12.29-15c0.44-3.53,1.84-15.71,8.49-17.4c0,0,6.41,0.3,10.88,10.39
				C403.64,308.61,407.67,320.11,392.11,320.57z M392.31,251.31c4.29-8.71,11.01-18.8,21.6-7.18c10.5,11.51-0.97,16.45-3.77,17.98
				c-2.8,1.53-12.42,6.91-18.05,2.87C392.09,264.98,388.02,260.03,392.31,251.31z M425.81,287.81c-3.55,13.28-13.86,5.54-16.64,3.77
				c-2.79-1.77-12.48-7.81-12.26-14.1c0,0,1.82-5.32,11.28-5.03C417.58,272.74,429.35,274.53,425.81,287.81z"/>
			
				<linearGradient id="SVGID_9_" gradientUnits="userSpaceOnUse" x1="312.6516" y1="295.6953" x2="366.5186" y2="213.6816" gradientTransform="matrix(0.9936 -0.1132 0.1132 0.9936 -22.1073 45.2281)">
				<stop  offset="0" style="stop-color:#A4B8BF"/>
				<stop  offset="1" style="stop-color:#E2E5EC"/>
			</linearGradient>
			<path class="st62" d="M331.98,272.96c-0.7-2.07-0.88-4.69-0.29-8.1c2.37-13.71,11.48-9.02,15.63-6.71
				c3.51-3.38,6.98-6.79,10.31-10.33c0.74-0.78,1.48-1.56,2.22-2.34c-3.22-7.41-3.3-14.13,8.38-15.64c2.53-0.33,4.58-0.24,6.29,0.09
				c2.41-2.57,4.78-5.17,7.15-7.78c-6.28-0.38-13.12,0.31-20.45,2.62c-24.54,7.73-39.49,32.07-37.18,56.71
				C326.6,278.56,329.24,275.72,331.98,272.96z"/>
			
				<linearGradient id="SVGID_10_" gradientUnits="userSpaceOnUse" x1="341.1354" y1="314.4051" x2="395.0024" y2="232.3914" gradientTransform="matrix(0.9936 -0.1132 0.1132 0.9936 -22.1073 45.2281)">
				<stop  offset="0" style="stop-color:#A4B8BF"/>
				<stop  offset="1" style="stop-color:#E2E5EC"/>
			</linearGradient>
			<path class="st63" d="M399.99,236.38c2-2.35,3.99-4.68,6.04-6.95c-2.41-1.33-5.01-2.59-7.82-3.66
				c-5.09,5.79-10.35,11.46-15.66,17.07c-0.01,0.46-0.02,0.88-0.01,1.21c0.02,2.35,0.1,8.36-1.52,13.04
				C387.66,250.46,393.98,243.45,399.99,236.38z"/>
			
				<linearGradient id="SVGID_11_" gradientUnits="userSpaceOnUse" x1="331.8232" y1="308.2902" x2="385.6918" y2="226.2741" gradientTransform="matrix(0.9936 -0.1132 0.1132 0.9936 -22.1073 45.2281)">
				<stop  offset="0" style="stop-color:#A4B8BF"/>
				<stop  offset="1" style="stop-color:#E2E5EC"/>
			</linearGradient>
			<path class="st64" d="M363.29,273.41c1.91-1.76,3.82-3.51,5.78-5.21c2.07-1.78,4.09-3.62,6.1-5.49c-1.52-0.27-4.32-1.18-7.4-4.37
				c-0.46,0.48-0.93,0.97-1.39,1.45c-2.18,2.27-4.42,4.48-6.68,6.68c2.01,2.04,3.51,4.34,3.64,6.77
				C363.34,273.25,363.32,273.31,363.29,273.41z"/>
			
				<linearGradient id="SVGID_12_" gradientUnits="userSpaceOnUse" x1="322.8916" y1="302.4219" x2="376.7582" y2="220.4088" gradientTransform="matrix(0.9936 -0.1132 0.1132 0.9936 -22.1073 45.2281)">
				<stop  offset="0" style="stop-color:#A4B8BF"/>
				<stop  offset="1" style="stop-color:#E2E5EC"/>
			</linearGradient>
			<path class="st65" d="M338.36,296.37c6.78-5.67,13.11-11.85,19.52-17.93c-1.63,0.68-3.71,1.19-6.42,1.34
				c-1.89,0.1-3.83,0.17-5.72,0.13c-5.79,5.68-11.36,11.55-16.2,18.06c-0.26,0.34-0.54,0.62-0.81,0.9c0.59,1.28,1.25,2.55,1.95,3.81
				C333.24,300.58,335.82,298.5,338.36,296.37z"/>
			
				<linearGradient id="SVGID_13_" gradientUnits="userSpaceOnUse" x1="373.0855" y1="335.3919" x2="426.9522" y2="253.3787" gradientTransform="matrix(0.9936 -0.1132 0.1132 0.9936 -22.1073 45.2281)">
				<stop  offset="0" style="stop-color:#A4B8BF"/>
				<stop  offset="1" style="stop-color:#E2E5EC"/>
			</linearGradient>
			<path class="st66" d="M425.98,274.59c-0.71,0.73-1.44,1.46-2.15,2.19c2.34,2.28,3.39,5.73,1.97,11.03
				c-3.55,13.28-13.86,5.54-16.64,3.77c-0.01-0.01-0.03-0.02-0.04-0.02c-1.63,1.6-3.24,3.23-4.89,4.81
				c-1.4,1.35-2.84,2.66-4.27,3.98c4.08,9.57,6.78,19.78-7.85,20.21c-6,0.18-9.26-1.46-10.99-3.74
				c-5.19,4.42-10.37,8.86-15.41,13.44c18.03,4,37.28-2.99,52.11-16c13.48-11.82,19.04-31.53,15.73-49.25
				C431.16,268.36,428.77,271.71,425.98,274.59z"/>
		</g>
		<path class="st67" d="M415.15,308.75c-11.75-4.96-23.13-13.89-35.88-16.08c-12.83-2.2-28.71-0.55-41.42,2.35
			c-4.13,0.94-8.14,2.04-12.12,2.72c3.57,8.66,9.49,16.93,18.1,24.1c23.51,19.59,54.04,12.89,75.59-6.02
			c1.54-1.35,2.95-2.83,4.29-4.37C420.79,310.8,417.93,309.93,415.15,308.75z M349.58,311.64c-9.71-7.36-5.6-12.96-2.35-15.9
			c4.42,7.23,10.54,12.89,17.23,15.1C361.69,315.37,357.24,317.44,349.58,311.64z M403.15,311.18c0.02,0.25,0.02,0.5,0.03,0.75
			c0,0.29,0,0.57-0.02,0.85c-0.01,0.24-0.04,0.47-0.07,0.71c-0.03,0.27-0.08,0.53-0.14,0.79c-0.05,0.22-0.1,0.44-0.17,0.65
			c-0.08,0.25-0.18,0.49-0.28,0.73c-0.09,0.2-0.18,0.4-0.28,0.59c-0.13,0.23-0.28,0.44-0.44,0.66c-0.13,0.18-0.25,0.35-0.4,0.52
			c-0.18,0.2-0.4,0.39-0.62,0.58c-0.17,0.15-0.33,0.3-0.53,0.44c-0.25,0.18-0.54,0.33-0.82,0.49c-0.21,0.12-0.41,0.24-0.65,0.35
			c-0.33,0.15-0.71,0.27-1.08,0.39c-0.25,0.08-0.48,0.18-0.75,0.25c-0.45,0.12-0.95,0.2-1.45,0.29c-0.26,0.04-0.48,0.11-0.75,0.14
			c-0.8,0.11-1.67,0.18-2.62,0.21c-0.89,0.03-1.7,0-2.47-0.05c-0.24-0.02-0.47-0.04-0.7-0.06c-0.52-0.05-1.01-0.12-1.48-0.2
			c-0.23-0.04-0.45-0.08-0.67-0.13c-0.48-0.11-0.92-0.23-1.34-0.37c-0.13-0.05-0.29-0.08-0.41-0.13c-0.5-0.19-0.95-0.4-1.37-0.63
			c-0.19-0.1-0.35-0.22-0.52-0.33c-0.23-0.15-0.45-0.3-0.65-0.46c-0.17-0.14-0.34-0.28-0.5-0.43c-0.16-0.15-0.31-0.31-0.45-0.47
			c-0.14-0.16-0.3-0.32-0.42-0.48c-0.97-1.28-1.45-2.75-1.66-4.23c8.42-0.3,16.24-2.77,22.44-7.16c0.05,0.16,0.11,0.33,0.16,0.5
			c0.09,0.28,0.16,0.56,0.24,0.83c0.09,0.33,0.19,0.65,0.27,0.97c0.07,0.27,0.12,0.54,0.18,0.81c0.07,0.32,0.13,0.63,0.19,0.94
			c0.05,0.26,0.08,0.52,0.11,0.78C403.09,310.58,403.13,310.89,403.15,311.18z"/>
		<path class="st53" d="M382.6,303.16c-9.06-3.04-18-4.94-28.35-3.92c-11.22,1.11-21.91,5.71-32.94,6.65
			c-8.69,0.74-17.23,2.09-25.95,0.66c-2.88-0.47-13.16-2.55-13.41-7.07l1.45,26.31c2.87,4.4,23.39,8.84,36.14,7.23
			c6.12-0.77,17.39-3.2,27.45-5.51c11.73-2.7,24-1.91,35.29,2.27c17.67,6.53,40.28,14.79,40.28,14.79c47.14,10.18,62-25.66,62-25.66
			c-14,8.5-33.08,5.59-48.18,2.25C421.99,317.97,386.48,304.47,382.6,303.16z"/>
		
			<linearGradient id="SVGID_14_" gradientUnits="userSpaceOnUse" x1="356.6841" y1="300.5412" x2="337.5023" y2="320.7325" gradientTransform="matrix(0.9936 -0.1132 0.1132 0.9936 -22.1073 45.2281)">
			<stop  offset="0.0428" style="stop-color:#B3BCC3"/>
			<stop  offset="0.9733" style="stop-color:#E2E5E8"/>
		</linearGradient>
		<path class="st68" d="M367.06,303.93c-2.64-0.09-5.38,0.53-7.88,1c-3.92,0.74-7.88,1.19-11.78,1.98
			c-0.66,0.13-1.32,0.25-1.99,0.38l1.85,16.23c5.6-0.76,11.29-1.69,16.94-1.78c1.86-0.03,4.05-0.04,6.03,0.46l-2.06-18.06
			C367.79,304.07,367.43,304,367.06,303.93z"/>
		
			<linearGradient id="SVGID_15_" gradientUnits="userSpaceOnUse" x1="382.1303" y1="309.7592" x2="363.6216" y2="321.874" gradientTransform="matrix(0.9936 -0.1132 0.1132 0.9936 -22.1073 45.2281)">
			<stop  offset="0.0428" style="stop-color:#B3BCC3"/>
			<stop  offset="0.9733" style="stop-color:#E2E5E8"/>
		</linearGradient>
		<path class="st69" d="M388.11,309.45c-4.29-1.27-8.75-2-13-3.37l1.96,17.22c5.03,1.36,9.83,3.52,14.7,5.39
			c1.23-3.64,2.41-7.29,3.38-11.01c0.44-1.69,0.85-3.5,1.3-5.33C393.71,311.28,390.94,310.29,388.11,309.45z"/>
		
			<linearGradient id="SVGID_16_" gradientUnits="userSpaceOnUse" x1="406.3836" y1="321.1808" x2="382.8272" y2="331.9495" gradientTransform="matrix(0.9936 -0.1132 0.1132 0.9936 -22.1073 45.2281)">
			<stop  offset="0.0428" style="stop-color:#B3BCC3"/>
			<stop  offset="0.9733" style="stop-color:#E2E5E8"/>
		</linearGradient>
		<path class="st70" d="M406.13,316.39c-2.02-0.88-4.05-1.75-6.09-2.6c-0.59,2.21-1.14,4.43-1.75,6.63
			c-0.9,3.22-1.95,6.38-3.02,9.54c0.25,0.09,0.5,0.17,0.76,0.26c6.08,1.98,12.2,3.88,18.31,5.76c0.81-1.27,1.61-2.54,2.39-3.83
			c1.83-3.04,3.2-6.32,4.68-9.54C416.19,320.84,411.18,318.58,406.13,316.39z"/>
		
			<linearGradient id="SVGID_17_" gradientUnits="userSpaceOnUse" x1="428.9934" y1="327.5692" x2="405.7737" y2="342.7125" gradientTransform="matrix(0.9936 -0.1132 0.1132 0.9936 -22.1073 45.2281)">
			<stop  offset="0.0428" style="stop-color:#B3BCC3"/>
			<stop  offset="0.9733" style="stop-color:#E2E5E8"/>
		</linearGradient>
		<path class="st71" d="M441.87,326.71c-5.7-1.01-11.47-1.46-17.06-3.04c-1.83,3.92-3.39,8.04-5.62,11.61
			c-0.38,0.61-0.78,1.22-1.17,1.83c0.2,0.06,0.4,0.12,0.59,0.18c4.96,1.53,9.95,2.61,14.95,3.24c3.46-4.34,6.71-8.8,9.38-13.64
			C442.58,326.83,442.22,326.78,441.87,326.71z"/>
		
			<linearGradient id="SVGID_18_" gradientUnits="userSpaceOnUse" x1="444.3109" y1="333.7892" x2="426.1388" y2="348.2596" gradientTransform="matrix(0.9936 -0.1132 0.1132 0.9936 -22.1073 45.2281)">
			<stop  offset="0.0428" style="stop-color:#B3BCC3"/>
			<stop  offset="0.9733" style="stop-color:#E2E5E8"/>
		</linearGradient>
		<path class="st72" d="M446.93,327.4c-2.53,4.81-5.64,9.26-8.98,13.55c4.86,0.34,9.73,0.24,14.59-0.34
			c0.42-0.84,0.83-1.68,1.26-2.52c1.85-3.67,4.09-7.02,6.28-10.49c0.01-0.01,0.01-0.02,0.02-0.03
			C455.7,327.84,451.29,327.83,446.93,327.4z"/>
		
			<linearGradient id="SVGID_19_" gradientUnits="userSpaceOnUse" x1="460.1327" y1="332.731" x2="447.0085" y2="347.5378" gradientTransform="matrix(0.9936 -0.1132 0.1132 0.9936 -22.1073 45.2281)">
			<stop  offset="0.0428" style="stop-color:#B3BCC3"/>
			<stop  offset="0.9733" style="stop-color:#E2E5E8"/>
		</linearGradient>
		<path class="st73" d="M471.42,326.32c-2.13,0.32-4.27,0.6-6.42,0.83c-2.33,4.1-5.33,8.01-7.48,11.91
			c9.47-3.68,15.75-9.37,19.57-13.9C475.09,325.73,473.06,326.07,471.42,326.32z"/>
		
			<linearGradient id="SVGID_20_" gradientUnits="userSpaceOnUse" x1="324.6291" y1="301.3316" x2="310.1588" y2="320.8496" gradientTransform="matrix(0.9936 -0.1132 0.1132 0.9936 -22.1073 45.2281)">
			<stop  offset="0.0428" style="stop-color:#B3BCC3"/>
			<stop  offset="0.9733" style="stop-color:#E2E5E8"/>
		</linearGradient>
		<path class="st74" d="M318.5,310.69c-0.84,0.08-1.69,0.16-2.53,0.25l1.94,17.04c2.96-0.54,6.22-0.42,8.93-0.95
			c4.99-0.99,10-1.93,15.03-2.72l-1.83-16.09C332.9,309.32,325.72,310,318.5,310.69z"/>
		
			<linearGradient id="SVGID_21_" gradientUnits="userSpaceOnUse" x1="294.2518" y1="302.6166" x2="275.743" y2="315.068" gradientTransform="matrix(0.9936 -0.1132 0.1132 0.9936 -22.1073 45.2281)">
			<stop  offset="0.0428" style="stop-color:#B3BCC3"/>
			<stop  offset="0.9733" style="stop-color:#E2E5E8"/>
		</linearGradient>
		<path class="st75" d="M291.65,310.55c-2.25-0.58-4.55-1.48-6.59-2.74c0.22,4.56,0.55,11.23,0.74,15.16
			c4.84,2.24,9.9,3.99,15.16,4.86c3.29,0.54,6.57,0.76,9.86,0.75l-1.94-17C303.12,312,297.37,312.01,291.65,310.55z"/>
		<g>
			<path class="st53" d="M481.77,323.91c0,0,29.1-24.74,3.6-48.21c0,0-10.9-11.1-24.62-0.92l-13.25,18.75c0,0,17.92-8.44,26.62,7.19
				c6.61,11.86,3.71,20.13,0.38,25.07C474.51,325.8,478.87,324.87,481.77,323.91z"/>
			
				<linearGradient id="SVGID_22_" gradientUnits="userSpaceOnUse" x1="458.3072" y1="280.5639" x2="449.8943" y2="297.7263" gradientTransform="matrix(0.9936 -0.1132 0.1132 0.9936 -22.1073 45.2281)">
				<stop  offset="0.0428" style="stop-color:#B3BCC3"/>
				<stop  offset="0.9733" style="stop-color:#E2E5E8"/>
			</linearGradient>
			<path class="st76" d="M467.15,279.2c0.65-1.5,1.22-3.12,1.8-4.76c-2.12,0.52-4.39,1.55-6.76,3.31l-7.93,11.22
				c3.49-1.6,6.67-1.74,9.35-1.23C464.7,284.86,465.92,282.03,467.15,279.2z"/>
			
				<linearGradient id="SVGID_23_" gradientUnits="userSpaceOnUse" x1="474.5561" y1="286.4538" x2="463.7874" y2="304.9623" gradientTransform="matrix(0.9936 -0.1132 0.1132 0.9936 -22.1073 45.2281)">
				<stop  offset="0.0428" style="stop-color:#B3BCC3"/>
				<stop  offset="0.9733" style="stop-color:#E2E5E8"/>
			</linearGradient>
			<path class="st77" d="M471.99,292.03c0.22,0.21,0.43,0.41,0.65,0.62c2.64-1.46,5.28-2.94,7.9-4.44c2.43-1.39,4.91-3.33,7.53-4.86
				c-1.19-1.6-2.64-3.2-4.37-4.8c0,0-4.12-4.19-10.34-4.53c-0.95,2.58-2.07,5.09-3.17,7.61c-1.04,2.4-2.07,4.8-3.02,7.24
				C470.19,290.2,471.99,292.03,471.99,292.03z"/>
			
				<linearGradient id="SVGID_24_" gradientUnits="userSpaceOnUse" x1="481.315" y1="298.8908" x2="468.527" y2="315.7171" gradientTransform="matrix(0.9936 -0.1132 0.1132 0.9936 -22.1073 45.2281)">
				<stop  offset="0.0428" style="stop-color:#B3BCC3"/>
				<stop  offset="0.9733" style="stop-color:#E2E5E8"/>
			</linearGradient>
			<path class="st78" d="M492.59,300.25c0.63-4.25,0.13-8.89-2.43-13.63c-0.96,0.61-1.89,1.28-2.84,1.92
				c-2.02,1.35-4.18,2.49-6.29,3.69c-1.91,1.09-3.83,2.16-5.75,3.23c1.68,2.01,2.94,4.01,3.85,6
				C483.61,300.99,488.11,300.66,492.59,300.25z"/>
			
				<linearGradient id="SVGID_25_" gradientUnits="userSpaceOnUse" x1="479.7732" y1="313.7544" x2="461.6009" y2="329.2346" gradientTransform="matrix(0.9936 -0.1132 0.1132 0.9936 -22.1073 45.2281)">
				<stop  offset="0.0428" style="stop-color:#B3BCC3"/>
				<stop  offset="0.9733" style="stop-color:#E2E5E8"/>
			</linearGradient>
			<path class="st79" d="M480.11,317.19c1.52-0.31,3.05-0.6,4.58-0.82c2.47-2.95,5.42-7.23,7.01-12.27c-3.75,0.33-7.51,0.62-11.25,1
				C481.57,309.38,481.21,313.48,480.11,317.19z"/>
		</g>
		<path class="st57" d="M485.38,275.7c0,0-10.9-11.1-24.62-0.92l-13.25,18.75c0,0,17.92-8.44,26.62,7.19
			c6.61,11.86,3.71,20.13,0.38,25.07c0,0,4.36-0.92,7.26-1.89C481.77,323.91,510.87,299.17,485.38,275.7z"/>
		<path class="st53" d="M458.48,317.14l13.55-11.69c0,0-18.55-7.95-14.35-26.3l-14.57,18.78
			C443.11,297.93,440.32,316.51,458.48,317.14z"/>
		
			<linearGradient id="SVGID_26_" gradientUnits="userSpaceOnUse" x1="446.4494" y1="298.0986" x2="437.0267" y2="313.5786" gradientTransform="matrix(0.9936 -0.1132 0.1132 0.9936 -22.1073 45.2281)">
			<stop  offset="0.0428" style="stop-color:#B3BCC3"/>
			<stop  offset="0.9733" style="stop-color:#E2E5E8"/>
		</linearGradient>
		<path class="st80" d="M450.74,302.77c2.34-1.83,4.69-3.64,7.04-5.46c-1.66-2.91-2.57-6.64-1.51-11.28l-10.73,13.84
			c0,0-0.49,3.27,0.58,6.67C447.63,305.25,449.18,304,450.74,302.77z"/>
		
			<linearGradient id="SVGID_27_" gradientUnits="userSpaceOnUse" x1="452.3755" y1="308.0001" x2="442.2801" y2="320.4511" gradientTransform="matrix(0.9936 -0.1132 0.1132 0.9936 -22.1073 45.2281)">
			<stop  offset="0.0428" style="stop-color:#B3BCC3"/>
			<stop  offset="0.9733" style="stop-color:#E2E5E8"/>
		</linearGradient>
		<path class="st81" d="M460.11,300.47c-1.54,1.13-3.08,2.19-4.4,3.21c-2.65,2.05-5.29,4.13-7.84,6.31c1.67,2.17,4.43,3.87,9,4.03
			l9.98-8.61C466.85,305.41,463.21,303.84,460.11,300.47z"/>
	</g>
</g>
</svg>
